<svg width="552" height="646" viewBox="0 0 552 646" fill="none" xmlns="http://www.w3.org/2000/svg">
<path d="M187.686 414.091C186.377 414.284 184.837 414.386 184.525 415.945C184.284 417.153 184.375 418.396 185.099 419.444C186.336 421.234 188.174 422.279 190.388 421.91C192.367 421.581 195.086 419.787 195.086 417.559C195.086 416.303 194.181 415.039 193.433 414.099C192.631 413.092 191.938 412.032 190.928 411.208C189.566 410.097 188.465 409.988 187.24 411.298C186.57 412.015 185.936 412.993 185.643 413.932C185.498 414.395 185.605 414.766 185.605 415.23C185.605 415.848 185.49 414.936 185.605 414.63" stroke="#28D07E" stroke-opacity="0.5" stroke-linecap="round" stroke-linejoin="round"/>
<path d="M194.469 417.63C195.583 418.619 196.527 419.513 198.497 419.561C199.876 419.595 201.254 419.251 202.546 418.88C203.472 418.615 206.438 417.21 204.034 417.097" stroke="#28D07E" stroke-opacity="0.5" stroke-linecap="round" stroke-linejoin="round"/>
<path d="M205.955 409.003C204.485 410.626 202.457 413.807 203.219 416.245C203.487 417.102 203.876 417.679 204.379 418.412C205.393 419.886 206.963 419.426 208.388 419.041C209.42 418.762 210.647 417.883 211.043 416.883C211.588 415.503 210.451 413.345 209.501 412.395C208.44 411.334 207.6 410.043 206.418 409.114C206.103 408.867 205.864 408.599 205.454 408.69C204.993 408.793 204.803 409.234 205.416 409.234" stroke="#28D07E" stroke-opacity="0.5" stroke-linecap="round" stroke-linejoin="round"/>
<path d="M309.866 186.582C308.557 186.776 307.017 186.878 306.706 188.437C306.464 189.645 306.556 190.888 307.28 191.936C308.517 193.726 310.355 194.771 312.568 194.402C314.548 194.072 317.266 192.279 317.266 190.051C317.266 188.795 316.362 187.531 315.613 186.591C314.811 185.583 314.118 184.524 313.108 183.7C311.746 182.589 310.646 182.48 309.421 183.79C308.751 184.507 308.117 185.485 307.823 186.424C307.679 186.887 307.785 187.258 307.785 187.722C307.785 188.34 307.67 187.428 307.785 187.122" stroke="#28D07E" stroke-opacity="0.5" stroke-linecap="round" stroke-linejoin="round"/>
<path d="M316.65 190.122C317.764 191.111 318.708 192.005 320.677 192.053C322.056 192.087 323.435 191.743 324.727 191.372C325.652 191.107 328.618 189.702 326.215 189.589" stroke="#28D07E" stroke-opacity="0.5" stroke-linecap="round" stroke-linejoin="round"/>
<path d="M328.135 181.495C326.666 183.118 324.637 186.299 325.399 188.737C325.667 189.594 326.056 190.171 326.559 190.903C327.573 192.377 329.143 191.918 330.568 191.533C331.601 191.254 332.828 190.375 333.223 189.375C333.769 187.994 332.631 185.837 331.681 184.887C330.62 183.826 329.78 182.535 328.598 181.606C328.283 181.359 328.045 181.091 327.634 181.182C327.173 181.285 326.983 181.726 327.596 181.726" stroke="#28D07E" stroke-opacity="0.5" stroke-linecap="round" stroke-linejoin="round"/>
<path d="M197.125 139.395C204.672 135.8 210.772 129.855 216.907 124.249C221.728 119.843 226.784 115.49 232.105 111.688C233.155 110.937 234.638 109.428 236.057 110.071C237.464 110.709 238.274 112.445 239.386 113.473C242.123 116.005 244.585 119.099 246.835 122.074C249.313 125.349 245.598 127.162 243.301 129.306C240.692 131.742 238.2 134.254 235.351 136.403C232.642 138.446 230.466 141.262 227.986 143.575C224.207 147.1 220.672 150.853 216.904 154.381C214.661 156.481 212.087 158.196 209.927 160.371C209.17 161.133 208.47 162.141 207.597 162.775C206.896 163.285 205.926 161.325 205.676 160.956C203.695 158.026 200.626 156.021 198.686 152.957C197.467 151.03 196.646 148.652 195.186 146.892C194.489 146.052 192.747 144.161 193.51 142.934C194.29 141.681 196.503 141.081 197.71 140.184C198.651 139.484 199.795 138.621 200.866 138.134C201.644 137.781 202.408 137.154 203.104 136.672C204.936 135.402 202.995 135.945 201.756 136.417" stroke="#28D07E" stroke-opacity="0.5" stroke-linecap="round" stroke-linejoin="round"/>
<path d="M198.278 145.148C202.872 147.992 206.993 152.108 210.58 156.167C210.67 156.27 211.543 156.878 211.41 157.103C211.153 157.538 208.171 155.575 207.887 155.379" stroke="#28D07E" stroke-opacity="0.5" stroke-linecap="round" stroke-linejoin="round"/>
<path d="M202.832 141.036C206.557 142.102 208.777 144.132 211.784 146.303C213.124 147.27 214.488 148.143 215.69 149.281C216.255 149.815 216.657 150.518 217.179 151.094C217.894 151.883 214.974 150.178 214.63 149.981" stroke="#28D07E" stroke-opacity="0.5" stroke-linecap="round" stroke-linejoin="round"/>
<path d="M208.244 137.848C210.851 140.201 213.471 142.521 216.159 144.778C217.18 145.636 218.34 146.423 219.222 147.434C220.788 149.227 218.737 146.9 218.041 146.243" stroke="#28D07E" stroke-opacity="0.5" stroke-linecap="round" stroke-linejoin="round"/>
<path d="M211.896 135.606C213.83 136.781 215.849 137.92 217.486 139.505C218.158 140.156 218.715 140.922 219.433 141.524C220.317 142.266 221.092 143.132 221.982 143.853C223.25 144.88 223.441 145.18 221.935 143.891" stroke="#28D07E" stroke-opacity="0.5" stroke-linecap="round" stroke-linejoin="round"/>
<path d="M216.604 132.154C218.737 133.824 220.712 135.519 222.495 137.555C223.285 138.457 223.922 139.498 224.924 140.19C225.843 140.824 226.486 141.007 225.411 139.977" stroke="#28D07E" stroke-opacity="0.5" stroke-linecap="round" stroke-linejoin="round"/>
<path d="M221.137 128.637C223.015 130.048 224.866 131.336 226.367 133.154C227.053 133.986 227.595 134.942 228.362 135.709C229.92 137.268 228.849 136.482 227.722 135.424" stroke="#28D07E" stroke-opacity="0.5" stroke-linecap="round" stroke-linejoin="round"/>
<path d="M225.317 124.987C227.954 127.509 230.162 130.463 232.803 132.954C234.582 134.632 232.034 131.944 231.617 131.466" stroke="#28D07E" stroke-opacity="0.5" stroke-linecap="round" stroke-linejoin="round"/>
<path d="M230.421 122.085C232.641 121.179 234.943 120.099 236.135 117.884C236.464 117.274 236.888 116.742 237.023 116.054C237.209 115.109 237.172 115.515 236.472 116.126" stroke="#28D07E" stroke-opacity="0.5" stroke-linecap="round" stroke-linejoin="round"/>
<path d="M233.994 125.133C235.754 123.5 237.721 121.716 239.01 119.644C239.653 118.61 240.878 117.348 239.165 118.843" stroke="#28D07E" stroke-opacity="0.5" stroke-linecap="round" stroke-linejoin="round"/>
<path d="M239.635 128.555C241.238 126.813 242.665 125.192 244.141 123.371C244.617 122.782 246.07 122.018 244.322 122.485" stroke="#28D07E" stroke-opacity="0.5" stroke-linecap="round" stroke-linejoin="round"/>
<path d="M238.36 127.674C240.038 126.236 241.935 124.562 243.265 122.747C243.62 122.262 243.893 121.723 244.218 121.219C244.762 120.376 244.796 120.661 243.971 120.748" stroke="#28D07E" stroke-opacity="0.5" stroke-linecap="round" stroke-linejoin="round"/>
<path d="M202.808 148.053C211.168 144.657 213.231 135.44 220.043 130.228C220.872 129.594 221.545 128.889 222.512 128.45C223.158 128.157 223.956 128.016 224.544 127.641C224.903 127.411 227.882 125.135 225.812 126.076" stroke="#28D07E" stroke-opacity="0.5" stroke-linecap="round" stroke-linejoin="round"/>
<path d="M198.915 145.588C199.854 144.447 200.687 143.471 201.877 142.646C202.072 142.51 202.373 142.488 202.534 142.307C202.852 141.949 203.334 141.425 203.456 140.964C203.939 139.145 206.297 139.481 207.55 138.569C208.741 137.702 209.888 136.823 211.103 135.966C212.441 135.022 213.06 134.194 214.135 132.984C215.122 131.872 216.081 130.748 217.126 129.696C217.981 128.835 219.324 128.052 219.868 126.95C220.482 125.707 222.052 124.284 223.465 124.514C223.95 124.594 227.515 126.66 225.185 125.339" stroke="#28D07E" stroke-opacity="0.5" stroke-linecap="round" stroke-linejoin="round"/>
<path d="M206.48 150.033C212.763 146.72 216.249 139.495 220.492 134.037C222.055 132.027 224.288 130.691 225.924 128.716C226.624 127.871 228.169 126.974 226.372 126.989" stroke="#28D07E" stroke-opacity="0.5" stroke-linecap="round" stroke-linejoin="round"/>
<path d="M208.723 152.08C214.416 148.58 218.06 142.069 222.202 136.91C224.086 134.562 225.905 132.166 227.812 129.837C228.682 128.776 230.198 128.113 228.252 129.2" stroke="#28D07E" stroke-opacity="0.5" stroke-linecap="round" stroke-linejoin="round"/>
<path d="M210.966 155.732C214.518 152.268 217.386 148.53 220.292 144.523C222.059 142.087 223.587 139.348 225.662 137.155C226.853 135.896 227.769 134.422 228.85 133.088C229.286 132.55 229.586 131.924 230.034 131.391C231.042 130.19 230.339 131.276 229.637 131.928" stroke="#28D07E" stroke-opacity="0.5" stroke-linecap="round" stroke-linejoin="round"/>
<path d="M211.801 157.25C213.569 155.518 216.159 153.852 217.338 151.605C217.766 150.79 218.825 148.821 219.568 148.322C220.551 147.662 221.019 146.259 221.733 145.377C222.478 144.458 223.207 143.561 224.015 142.687C224.772 141.867 225.015 140.428 225.952 139.723C226.997 138.937 227.505 137.72 228.339 136.782C229.06 135.97 230.433 135.129 231.328 134.508C231.824 134.165 232.17 133.696 232.732 133.441C233.872 132.923 233.132 133.188 232.089 133.149" stroke="#28D07E" stroke-opacity="0.5" stroke-linecap="round" stroke-linejoin="round"/>
<path d="M230.278 122.734C231.74 123.119 233.543 123.384 234.876 124.181C235.736 124.695 236.485 125.211 234.919 124.275" stroke="#28D07E" stroke-opacity="0.5" stroke-linecap="round" stroke-linejoin="round"/>
<path d="M231.796 120.293C233.882 120.838 235.357 121.449 237.057 122.558C238.17 123.283 237.991 123.082 236.833 122.384" stroke="#28D07E" stroke-opacity="0.5" stroke-linecap="round" stroke-linejoin="round"/>
<path d="M234.327 117.83C236.118 118.837 237.856 119.982 239.708 120.859C240.797 121.375 240.226 121.339 239.385 120.933" stroke="#28D07E" stroke-opacity="0.5" stroke-linecap="round" stroke-linejoin="round"/>
<path d="M235.768 115.862C237.651 116.719 239.388 117.573 241.122 118.652C241.913 119.144 241.195 119.176 240.595 118.778" stroke="#28D07E" stroke-opacity="0.5" stroke-linecap="round" stroke-linejoin="round"/>
<path d="M231.202 121.876C232.625 120.184 234.052 118.581 235.348 116.847C235.716 116.355 237.958 113.612 236.989 115.015" stroke="#28D07E" stroke-opacity="0.5" stroke-linecap="round" stroke-linejoin="round"/>
<path d="M232.697 124.846C234.548 123.209 237.216 121.027 237.814 118.581C237.99 117.862 238.371 117.143 238.93 116.647C239.497 116.145 240.09 115.919 239.243 116.765" stroke="#28D07E" stroke-opacity="0.5" stroke-linecap="round" stroke-linejoin="round"/>
<path d="M231.212 124.791C233.186 122.664 234.874 121.235 235.989 118.616C236.279 117.935 236.611 117.372 237.086 116.836C237.59 116.269 238.313 115.738 237.34 116.753" stroke="#28D07E" stroke-opacity="0.5" stroke-linecap="round" stroke-linejoin="round"/>
<path d="M238.547 125.838C239.456 126.414 240.368 126.948 241.313 127.428C241.703 127.626 241.22 127.243 241.054 127.18" stroke="#28D07E" stroke-opacity="0.5" stroke-linecap="round" stroke-linejoin="round"/>
<path d="M240.319 122.99C240.38 123.042 243.954 126.105 243.32 125.422" stroke="#28D07E" stroke-opacity="0.5" stroke-linecap="round" stroke-linejoin="round"/>
<path d="M242.442 121.88C243.23 122.638 245.645 124.857 244.795 124.168" stroke="#28D07E" stroke-opacity="0.5" stroke-linecap="round" stroke-linejoin="round"/>
<path d="M237.491 127.047C238.798 125.831 241.663 123.42 242.365 121.55C242.642 120.813 243.909 119.866 242.717 120.879" stroke="#28D07E" stroke-opacity="0.5" stroke-linecap="round" stroke-linejoin="round"/>
<path d="M237.656 127.41C237.78 127.51 240.279 130.201 240.812 128.896C241.084 128.23 241.438 127.362 242.105 126.995C243.276 126.351 243.492 124.322 244.69 123.778C246.05 123.16 245.923 122.125 244.657 121.758C244.159 121.613 244.552 120.633 244.035 120.71C243.562 120.781 243.312 120.606 242.783 120.703" stroke="#28D07E" stroke-opacity="0.5" stroke-linecap="round" stroke-linejoin="round"/>
<path d="M230.113 122.371C230.97 124.009 231.132 124.602 232.515 125.285C232.888 125.47 233.376 125.214 233.659 125.358C234.219 125.642 235.327 125.648 235.746 125.132C236.587 124.093 236.897 123.423 238.185 122.791C238.999 122.393 239.653 121.452 240.029 120.673C240.442 119.816 241.187 119.171 241.624 118.311C241.81 117.945 240.309 117.002 240.295 116.368C240.292 116.188 238.51 116.183 238.213 116.033C237.854 115.85 237.689 115.593 237.517 115.214C237.265 114.659 236.819 115.348 236.142 115.4" stroke="#28D07E" stroke-opacity="0.5" stroke-linecap="round" stroke-linejoin="round"/>
<path d="M200.434 143.147C202.458 143.916 204.224 144.908 206.046 146.006C207.629 146.96 209.417 147.467 210.989 148.391C212.108 149.049 213.27 150.551 214.096 151.537C214.371 151.866 214.577 152.173 214.772 152.544C215.22 153.394 214.754 151.339 214.707 151.114" stroke="#28D07E" stroke-opacity="0.5" stroke-linecap="round" stroke-linejoin="round"/>
<path d="M219.982 127.701C220.544 128.291 222.817 131.545 222.368 129.099" stroke="#28D07E" stroke-opacity="0.5" stroke-linecap="round" stroke-linejoin="round"/>
<path d="M224.661 353.572C224.902 354.811 225.514 355.616 225.989 356.744C226.312 357.511 226.916 358.106 227.253 358.859C227.616 359.672 228.161 360.628 228.667 361.352C229.102 361.972 229.386 362.56 229.935 363.109C230.903 364.077 231.636 365.232 232.61 366.187C234.025 367.575 236.421 369.386 238.482 369.272C239.144 369.235 239.877 369.44 240.527 369.342C241.084 369.258 241.761 369.23 242.319 369.326C243.236 369.485 244.232 369.325 245.109 369.515C245.583 369.618 246.099 369.468 246.578 369.557C247.2 369.672 247.929 369.701 248.562 369.701C250.636 369.701 252.705 369.688 254.774 369.426C255.895 369.283 257.005 369.655 258.115 369.458C259.156 369.272 260.543 369.464 261.523 369.035C262.727 368.508 263.924 367.68 264.854 366.75C265.321 366.284 265.674 365.727 265.99 365.15C266.405 364.393 266.636 363.576 267.053 362.821C268.506 360.186 269.335 357.253 270.512 354.507C270.789 353.859 271.245 353.335 271.578 352.737C271.662 352.586 271.7 352.393 271.837 352.247C272.35 351.704 271.367 351.646 270.915 351.441" stroke="#28D07E" stroke-opacity="0.5" stroke-linecap="round" stroke-linejoin="round"/>
<path d="M224.43 353.687C225.46 352.341 226.333 351.351 227.829 350.59C229.081 349.952 230.38 349.195 231.512 348.362C233.251 347.084 235.645 346.514 237.762 346.129C240.067 345.71 242.335 345.22 244.681 345.22C245.406 345.22 246.124 345.438 246.85 345.45C247.719 345.465 248.59 345.492 249.455 345.566C250.783 345.679 252.145 345.652 253.474 345.681C255.329 345.721 257.105 346.681 258.959 346.83C260.063 346.918 261.349 347.083 262.422 347.383C262.824 347.496 263.282 347.572 263.657 347.754C264.124 347.981 264.451 348.365 264.88 348.631C266.263 349.492 267.81 349.897 269.305 350.551C269.764 350.752 270.552 351.095 271.059 351.095C271.758 351.095 271.721 352.385 271.721 351.095" stroke="#28D07E" stroke-opacity="0.5" stroke-linecap="round" stroke-linejoin="round"/>
<path d="M271.606 351.902C270.752 353.047 270.143 353.483 268.931 354.151C267.979 354.676 266.925 355.048 265.859 355.243C264.863 355.425 263.776 355.568 262.767 355.649C261.928 355.716 261.071 355.619 260.214 355.716C258.274 355.937 256.318 356.437 254.447 356.984C251.777 357.764 249.198 357.845 246.44 357.995C243.43 358.158 240.411 357.928 237.461 357.316C236.466 357.11 235.414 357.295 234.402 357.256C233.286 357.212 232.193 356.905 231.144 356.542C230.702 356.389 230.295 356.155 229.832 356.049C229.29 355.926 228.738 355.974 228.2 355.844C227.45 355.663 226.574 355.336 225.941 354.897C225.665 354.706 225.251 354.549 225.035 354.26C224.972 354.176 224.891 353.989 224.891 353.889C224.891 353.651 224.696 353.711 225.006 353.918" stroke="#28D07E" stroke-opacity="0.5" stroke-linecap="round" stroke-linejoin="round"/>
<path d="M246.838 363.595C247.539 363.517 248.465 363.53 248.175 362.629C248.082 362.339 247.848 362.308 247.599 362.225C246.858 361.978 245.532 362.457 245.253 363.23C244.754 364.618 245.7 366.118 247.186 365.637C247.591 365.506 248.308 365.22 248.566 364.853C248.874 364.412 248.411 364.542 248.105 364.113" stroke="#28D07E" stroke-opacity="0.5" stroke-linecap="round" stroke-linejoin="round"/>
<path d="M244.706 362.097C245.824 361.649 246.395 361.464 247.526 361.464C247.981 361.464 248.209 361.432 248.61 361.694C249.274 362.128 249.502 362.952 249.433 363.678C249.374 364.291 249.172 365.131 248.956 365.713C248.796 366.146 248.399 366.221 247.993 366.302C247.622 366.376 246.813 366.169 246.521 366.331C246.211 366.503 245.263 366.561 245.023 366.241C244.803 365.947 244.566 365.821 244.405 365.464C244.252 365.123 244.183 364.798 244.06 364.459C243.891 363.994 243.587 362.723 244.217 362.443C244.586 362.279 244.744 362.181 245.167 362.181C245.287 362.181 245.39 362.27 245.513 362.27C245.69 362.27 245.171 362.155 244.994 362.155" stroke="#28D07E" stroke-opacity="0.5" stroke-linecap="round" stroke-linejoin="round"/>
<path d="M246.722 357.489C247.535 356.439 248.276 355.355 249.116 354.334C249.567 353.785 250.127 353.313 250.614 352.788C252.006 351.285 253.424 349.639 254.486 347.882C255.531 346.152 256.958 344.267 258.508 342.967C259.327 342.28 260.059 341.522 260.771 340.73C261.462 339.962 261.78 338.889 262.435 338.077C262.942 337.449 266.26 333.174 266.838 335.773C267.065 336.795 266.069 337.509 265.443 338.135C264.733 338.845 264.019 339.747 263.414 340.554C262.831 341.332 262.121 342.016 261.555 342.801C260.784 343.868 259.381 344.632 258.819 345.841C258.355 346.838 257.585 347.64 257.007 348.564C256.207 349.845 255.269 350.915 254.326 352.087C253.578 353.016 252.407 353.78 251.878 354.839C251.435 355.724 250.651 356.097 249.935 356.67C249.624 356.919 249.245 357.058 248.969 357.403C248.877 357.518 248.712 357.65 248.626 357.521C248.577 357.448 248.39 357.613 248.425 357.694C248.548 357.981 248.249 357.005 248.22 356.913" stroke="#28D07E" stroke-opacity="0.5" stroke-linecap="round" stroke-linejoin="round"/>
<path d="M246.261 357.777C246.482 357.889 247.874 358.946 247.874 358.094C247.874 357.836 248.206 357.406 248.322 357.144C248.411 356.945 247.615 357.135 247.497 357.288C247.342 357.486 247.042 357.648 247.529 357.662C247.903 357.673 248.195 357.512 248.479 357.291C248.561 357.227 249.66 357.401 248.681 357.374C248.16 357.359 247.654 357.374 247.154 357.374C246.722 357.374 247.598 357.259 247.724 357.259C247.825 357.259 246.994 357.753 246.85 357.592C246.815 357.552 246.755 357.444 246.895 357.374" stroke="#28D07E" stroke-opacity="0.5" stroke-linecap="round" stroke-linejoin="round"/>
<path d="M227.944 353.515C228.009 353.549 230.067 354.627 230.075 354.494C230.085 354.333 229.97 354.192 230.05 354.033C230.398 353.336 230.849 353.671 231.448 353.94C231.916 354.151 231.206 351.82 232.616 352.804C233.345 353.313 233.539 353.232 233.419 352.379C233.329 351.733 233.552 351.731 234.107 351.799C234.485 351.846 234.756 351.928 234.971 351.569C235.233 351.133 235.528 350.885 236.063 351.073C236.506 351.229 236.9 351.668 237.205 351.108C237.339 350.862 237.226 350.125 237.65 350.267C237.916 350.355 238.266 350.702 238.568 350.593C238.798 350.51 238.974 349.799 239.234 349.911C239.505 350.029 239.781 350.543 240.124 350.42C240.289 350.361 240.595 349.821 240.271 349.886" stroke="#28D07E" stroke-opacity="0.5" stroke-linecap="round" stroke-linejoin="round"/>
<path d="M236.066 352.478C236.78 353.059 239.454 356.162 240.239 353.844C240.38 353.429 240.402 352.607 240.796 353.287C241.12 353.848 241.609 354.237 242.14 353.707C242.492 353.355 242.648 352.758 243.151 352.574C243.613 352.405 243.951 353.273 244.335 352.766C244.645 352.357 244.495 351.654 244.041 351.409C243.892 351.328 243.85 351.606 243.785 351.671" stroke="#28D07E" stroke-opacity="0.5" stroke-linecap="round" stroke-linejoin="round"/>
<path d="M242.229 348.907C243.342 348.715 244.743 348.326 245.589 349.323C245.982 349.784 245.944 350.374 245.685 350.897C245.496 351.279 244.987 351.47 244.661 351.095C244.395 350.788 244.945 350.281 245.141 350.094C245.816 349.451 246.815 350.48 247.026 351.179C247.203 351.762 245.608 353.114 245.801 352.535" stroke="#28D07E" stroke-opacity="0.5" stroke-linecap="round" stroke-linejoin="round"/>
<path d="M260.95 350.865C261.28 350.751 263.406 350.067 262.998 351.198C262.789 351.778 261.987 352.089 261.462 352.279C261.213 352.369 260.571 352.354 260.988 351.991C261.349 351.678 261.858 351.53 262.332 351.569C264.181 351.719 261.596 353.843 261.065 354.136C260.034 354.704 258.631 355.303 257.551 354.609" stroke="#28D07E" stroke-opacity="0.5" stroke-linecap="round" stroke-linejoin="round"/>
<path d="M249.602 347.466C250.041 348.18 250.568 348.896 250.943 349.646C251.072 349.904 250.514 349.243 250.383 348.987C250.348 348.919 250.108 348.162 250.085 348.167C249.805 348.23 249.739 349.514 249.663 349.751C249.304 350.873 248.417 350.443 247.548 350.359C246.495 350.258 246.024 351.296 245.442 351.959C244.976 352.49 244.793 352.653 245.109 353.284C245.365 353.795 245.471 354.291 245.109 354.753C244.827 355.114 244.474 355.342 244.133 355.64C243.821 355.912 244.269 355.867 244.21 355.704C244.05 355.256 243.064 355.349 242.741 355.371C241.542 355.45 240.321 355.149 239.144 355.224C238.519 355.263 237.93 355.612 237.311 355.704C236.681 355.797 237.513 356.343 237.749 356.5C238.155 356.771 236.955 355.925 236.514 355.716C235.774 355.366 235.092 355.096 234.709 354.321C234.325 353.545 233.988 353.016 233.339 352.446C233.116 352.249 233.089 351.951 233.198 351.684C233.451 351.067 234.012 350.565 234.568 350.231" stroke="#28D07E" stroke-opacity="0.5" stroke-linecap="round" stroke-linejoin="round"/>
<path d="M249.487 349.771C248.043 348.763 246.852 348.329 245.154 348.1C244.557 348.02 243.921 347.607 243.532 347.15C243.186 346.744 243.382 346.852 242.975 347.402C242.419 348.155 242.006 347.48 241.295 347.678C240.206 347.981 239.271 348.994 238.165 349.182C237.862 349.233 237.935 348.727 237.557 348.945C236.92 349.312 236.433 349.66 235.688 349.777C235.238 349.848 234.384 350.144 234.453 350.692" stroke="#28D07E" stroke-opacity="0.5" stroke-linecap="round" stroke-linejoin="round"/>
<path d="M259.279 349.771C260.673 349.905 262.084 349.888 263.472 350.036C263.96 350.088 264.21 350.286 264.553 350.606C264.863 350.894 265.347 351.574 265.792 351.611C266.433 351.664 266.764 351.398 267.363 351.211C267.723 351.098 268.873 351.211 268.496 351.211" stroke="#28D07E" stroke-opacity="0.5" stroke-linecap="round" stroke-linejoin="round"/>
<path d="M258.243 351.326C256.745 352.313 255.945 353.81 254.342 354.708C254.024 354.886 253.053 355.231 253.126 355.816C253.179 356.239 256.424 354.914 256.918 354.667" stroke="#28D07E" stroke-opacity="0.5" stroke-linecap="round" stroke-linejoin="round"/>
<path d="M263.83 352.708C264.644 353.314 265.347 354.181 266.365 353.873C266.64 353.79 267.216 353.757 267.401 353.572" stroke="#28D07E" stroke-opacity="0.5" stroke-linecap="round" stroke-linejoin="round"/>
<path d="M465.132 327.597C460.925 328.404 457.867 329.619 455.201 333.047C453.511 335.219 453.882 338.638 454.989 340.941C456.813 344.736 461.298 346.879 465.344 347.065C470.057 347.281 476.609 345.896 477.575 340.275C478.093 337.262 475.214 334.413 473.866 331.942C472.77 329.931 471.118 327.221 468.81 326.371C467.868 326.024 465.681 326.144 464.995 327.082C464.689 327.501 464.295 327.944 464.072 328.414C463.891 328.796 464.085 327.444 464.042 327.052" stroke="#28D07E" stroke-opacity="0.5" stroke-linecap="round" stroke-linejoin="round"/>
<path d="M466.903 337.951C465.768 338.535 463.926 338.921 464.92 340.199C465.146 340.491 465.469 340.475 465.745 340.199C465.98 339.964 467.167 338.728 466.29 338.436C464.502 337.84 465.156 341.407 466.433 339.829C467.12 338.981 466.159 338.146 465.298 338.663C464.272 339.278 465.084 340.353 465.889 339.42C466.495 338.716 466.011 338.177 465.351 338.837C464.76 339.428 465.36 340.37 465.941 339.571C466.537 338.752 465.858 338.058 465.139 338.776C464.307 339.608 465.208 339.521 465.798 338.973C466.392 338.421 465.338 338.502 464.995 338.935C464.2 339.941 465.446 339.798 465.646 338.935C465.941 337.668 464.634 340.58 465.268 338.36" stroke="#28D07E" stroke-opacity="0.5" stroke-linecap="round" stroke-linejoin="round"/>
<path d="M462.271 333.728C463.481 335.325 464.721 336.839 465.737 338.436C466.019 338.878 465.794 339.322 465.949 339.314C466.522 339.282 467.11 339.178 467.72 339.178C469.118 339.178 470.218 338.496 471.565 338.496C473.196 338.496 475.593 338.073 472.897 336.725" stroke="#28D07E" stroke-opacity="0.5" stroke-linecap="round" stroke-linejoin="round"/>
<path d="M460.908 327.461C460.653 326.173 459.41 323.05 461.725 323.381C462.556 323.5 463.114 324.359 463.603 324.902C464.874 326.315 464.738 328.021 462.679 328.142C462.14 328.174 461.38 329.243 460.772 328.483C460.083 327.621 460.786 327.679 460.908 326.643C460.988 325.966 460.545 326.022 460.355 325.356C460.21 324.846 460.512 324.287 460.635 323.918" stroke="#28D07E" stroke-opacity="0.5" stroke-linecap="round" stroke-linejoin="round"/>
<path d="M461.726 325.962C461.713 326.287 461.212 329.22 462.278 328.74C462.635 328.579 462.944 328.346 463.088 327.975C463.228 327.617 463.079 327.402 462.921 327.052C462.515 326.149 461.336 324.745 461.695 326.779C461.922 328.063 463.355 327.763 463.466 326.537C463.552 325.601 462.371 324.347 461.62 325.417C461.088 326.174 462.035 327.842 462.588 326.673C462.87 326.08 462.197 324.571 461.483 325.311C460.751 326.069 461.851 327.669 462.573 327.022C463.287 326.382 462.802 324.43 462.028 325.175C461.321 325.856 462.382 327.212 462.921 326.174C463.523 325.016 462.198 324.143 461.786 325.356C461.418 326.44 462.565 327.604 462.831 326.128C463.033 325.005 460.969 324.408 460.969 325.75C460.969 326.987 462.074 326.86 462.074 325.735C462.074 324.562 460.893 324.826 461.385 325.811C461.877 326.795 462.537 325.048 461.983 324.494C461.336 323.847 460.479 324.847 461.241 325.47C461.76 325.895 462.47 324.132 461.597 323.805C460.843 323.522 461.26 325.062 461.521 324.713C461.926 324.173 461.305 323.811 461.733 323.918C462.11 324.013 463.026 324.214 463.285 324.547C463.488 324.808 464.314 326.265 464.314 326.643C464.314 327.8 462.544 328.424 461.529 328.134C460.8 327.926 460.584 328.441 460.84 328.271C461.46 327.857 461.589 326.779 461.589 327.188" stroke="#28D07E" stroke-opacity="0.5" stroke-linecap="round" stroke-linejoin="round"/>
<path d="M461.589 346.943C460.888 348.432 460.265 349.927 459.44 351.334C459.254 351.65 458.905 352.297 458.864 352.666C458.754 353.66 459.752 350.295 459.954 349.805" stroke="#28D07E" stroke-opacity="0.5" stroke-linecap="round" stroke-linejoin="round"/>
<path d="M475.35 344.082C477.075 346.261 478.978 347.815 480.323 350.206C480.455 350.441 480.685 350.628 480.868 350.811C481.48 351.423 479.732 349.505 479.165 348.851" stroke="#28D07E" stroke-opacity="0.5" stroke-linecap="round" stroke-linejoin="round"/>
<path d="M361.065 217.051C362.144 221.123 366.31 236.26 367.307 241.791C370.051 257.019 365.745 236.24 365.735 242.966" stroke="#28D07E" stroke-opacity="0.5" stroke-width="2" stroke-linecap="round" stroke-linejoin="round"/>
<path d="M353.754 223.634C353.386 217.438 351.996 208.838 360.684 209.723C364.772 210.14 369.274 212.566 371.822 215.812C375.76 220.828 373.683 228.604 369.428 232.596C367.163 234.72 364.966 235.785 362.003 236.588C356.982 237.949 360.944 230.976 361.753 229.064" stroke="#28D07E" stroke-opacity="0.5" stroke-width="2" stroke-linecap="round" stroke-linejoin="round"/>
<path d="M376.352 231.207C384.985 230.745 392.931 229.046 396.02 238.408C397.814 243.849 400 250.46 398.504 256.194C397.152 261.375 394.24 264.614 388.916 262.407C381.308 259.253 381.318 253.315 385.459 247.393C386.984 245.213 392.823 240.847 392.827 238.298" stroke="#28D07E" stroke-opacity="0.5" stroke-width="2" stroke-linecap="round" stroke-linejoin="round"/>
<path d="M391.912 221.104C391.618 223.375 391.613 239.444 387.264 239.598C386.448 239.627 385.764 240.051 385.051 240.406C382.313 241.769 383.979 240.542 385.001 239.123C387.316 235.909 392.006 237.097 394.353 232.831C396.903 228.199 398.077 225.921 394.422 222.338C391.861 219.826 392.986 215.555 390.969 221.573" stroke="#28D07E" stroke-opacity="0.5" stroke-width="2" stroke-linecap="round" stroke-linejoin="round"/>
<path d="M404.653 206.522C407.99 214.033 411.039 223.815 416.392 230.354C417.806 232.082 418.6 230.578 418.578 229.232C418.551 227.532 418.072 225.816 417.579 224.206" stroke="#28D07E" stroke-opacity="0.5" stroke-width="2" stroke-linecap="round" stroke-linejoin="round"/>
<path d="M394.966 226.055C400.26 223.972 413.258 221.864 415.473 215.253" stroke="#28D07E" stroke-opacity="0.5" stroke-width="2" stroke-linecap="round" stroke-linejoin="round"/>
<path d="M411.247 206.768C434.192 246.902 411.838 218.694 423.5 211.353C430.58 206.898 431.17 227.897 433.132 218.814" stroke="#28D07E" stroke-opacity="0.5" stroke-width="2" stroke-linecap="round" stroke-linejoin="round"/>
<path d="M431.74 205.387C432.572 207.876 435.368 224.307 441.189 220.554C443.792 218.875 446.824 215.675 447.325 212.529C447.864 209.154 445.755 200.579 440.984 201.502C438.806 201.924 435.164 202.025 433.744 204.095C432.371 206.095 431.504 210.779 433.152 205.86" stroke="#28D07E" stroke-opacity="0.5" stroke-width="2" stroke-linecap="round" stroke-linejoin="round"/>
<path d="M447.997 201.409C454.504 197.231 462.152 195.86 463.142 205.698C463.266 206.933 463.289 208.488 463.856 209.625C464.512 210.943 463.163 206.403 461.886 205.67" stroke="#28D07E" stroke-opacity="0.5" stroke-width="2" stroke-linecap="round" stroke-linejoin="round"/>
<path d="M447.52 205.176C447.814 210.319 447.079 217.286 449.482 222.111C449.564 222.275 450.135 223.534 449.847 222.844C449.278 221.479 449.042 220.553 447.969 219.073" stroke="#28D07E" stroke-opacity="0.5" stroke-width="2" stroke-linecap="round" stroke-linejoin="round"/>
<path d="M282.833 251.734C281.932 260.093 283.503 285.829 269.305 284.227C266.345 283.894 263.657 283.399 262.251 280.61C260.778 277.69 259.56 275.149 259.414 271.832C259.234 267.758 260.856 265.835 264.15 263.996C265.305 263.352 262.823 265.962 262.603 266.215C261.155 267.878 266.067 265.851 267.945 265.435" stroke="#28D07E" stroke-opacity="0.5" stroke-width="2" stroke-linecap="round" stroke-linejoin="round"/>
<path d="M301.06 255.75C293.879 256.422 283.743 257.783 282.584 266.767C281.956 271.64 289.201 272.232 292.345 273.892C297.748 276.743 301.848 286.043 295.787 290.136C291.573 292.982 288.385 291.469 284.286 291.753C280.121 292.042 283.021 290.507 285.49 290.086" stroke="#28D07E" stroke-opacity="0.5" stroke-width="2" stroke-linecap="round" stroke-linejoin="round"/>
<path d="M339.973 34.5733C339.397 40.3405 339.047 46.1668 338.336 51.9203C338.267 52.4739 337.722 54.6592 338.367 52.8924C338.838 51.6006 338.686 50.2544 339.442 49.0294C340.485 47.3421 345.194 40.9151 347.406 41.5652C351.839 42.8682 347.365 51.0911 346.096 53.4474C345.658 54.26 344.465 56.0228 345.083 56.9341C345.906 58.149 347.429 53.6592 347.494 53.5218" stroke="#28D07E" stroke-opacity="0.5" stroke-width="2" stroke-linecap="round" stroke-linejoin="round"/>
<path d="M357.482 38.3603C356.956 40.9369 352.543 53.655 356.795 55.7616C357.995 56.3561 360.65 55.2339 361.475 54.2665C362.334 53.2591 361.885 51.7166 361.792 50.5474" stroke="#28D07E" stroke-opacity="0.5" stroke-width="2" stroke-linecap="round" stroke-linejoin="round"/>
<path d="M348.733 38.6382C353.398 40.0256 358.196 40.9493 362.832 42.3807C363.926 42.7186 364.336 42.8716 364.925 43.8477C365.841 45.366 363.407 43.9791 362.987 43.5192" stroke="#28D07E" stroke-opacity="0.5" stroke-width="2" stroke-linecap="round" stroke-linejoin="round"/>
<path d="M369.831 47.6529C368.76 50.8857 367.754 54.1591 366.531 57.3404C366.289 57.9729 366.252 58.2042 366.121 57.7211C365.995 57.2557 365.872 56.9815 366.079 56.49C367.177 53.878 369.74 50.1241 372.158 48.6652C374.768 47.0897 373.344 52.3816 372.993 53.4529C372.599 54.656 371.538 57.9535 372.745 54.7627C373.462 52.8638 375.11 48.1445 377.888 48.8314C379.57 49.2474 379.182 51.5219 378.885 52.7246C378.336 54.9425 377.791 57.1455 377.241 59.3708C376.437 62.6225 376.871 60.8665 377.459 58.4903" stroke="#28D07E" stroke-opacity="0.5" stroke-width="2" stroke-linecap="round" stroke-linejoin="round"/>
<path d="M390.569 40.5746C388.893 46.6026 386.837 52.6134 385.393 58.7041C385.224 59.4184 384.854 62.0633 385.992 62.3784C387.072 62.6777 391.341 60.1129 390.298 59.2237" stroke="#28D07E" stroke-opacity="0.5" stroke-width="2" stroke-linecap="round" stroke-linejoin="round"/>
<path d="M100.427 286.46C96.464 293.989 92.5135 301.525 88.5395 309.048C87.4068 311.193 85.1712 317.753 84.8944 315.344C84.5191 312.077 86.5151 307.504 87.3621 304.443C88.5574 300.122 90.9913 291.491 97.0562 291.522C101.634 291.547 106.781 298.26 107.491 302.449C107.992 305.406 109.45 302.066 111.428 301.174" stroke="#28D07E" stroke-opacity="0.5" stroke-width="2" stroke-linecap="round" stroke-linejoin="round"/>
<path d="M112.712 310.581C115.376 316.775 119.302 327.246 127.386 321.485C131.101 318.838 129.255 314.308 125.588 312.869C116.601 309.343 105.276 319.189 103.035 327.282C100.794 335.374 109.64 337.855 115.725 338.654C119.092 339.096 118.337 336.218 121.234 335.216" stroke="#28D07E" stroke-opacity="0.5" stroke-width="2" stroke-linecap="round" stroke-linejoin="round"/>
<path d="M135.095 331.997C128.113 329.082 118.864 326.483 114.93 335.405C113.033 339.705 121.52 340.21 124.038 340.091C128.846 339.865 139.552 328.735 135.945 331.922C132.779 334.719 129.576 338.02 128.274 342.15C127.434 344.818 128.399 350.711 131.492 346.641" stroke="#28D07E" stroke-opacity="0.5" stroke-width="2" stroke-linecap="round" stroke-linejoin="round"/>
<path d="M162.244 337.579C152.111 338.551 140.102 339.06 136.507 350.445C134.74 356.041 138.886 359.933 143.882 361.575C147.373 362.723 150.932 360.231 153.05 357.703" stroke="#28D07E" stroke-opacity="0.5" stroke-width="2" stroke-linecap="round" stroke-linejoin="round"/>
<path d="M171.448 339.123C170.892 339.799 145.931 367.004 157.829 367.214C161.124 367.273 164.505 365.356 166.773 363.201" stroke="#28D07E" stroke-opacity="0.5" stroke-width="2" stroke-linecap="round" stroke-linejoin="round"/>
<path d="M150.305 344.073C155.098 347.378 159.823 350.878 165.08 353.432C166.445 354.096 168.72 354.412 169.66 355.788C170.188 356.561 169.358 354.725 169.266 354.458" stroke="#28D07E" stroke-opacity="0.5" stroke-width="2" stroke-linecap="round" stroke-linejoin="round"/>
<path d="M96.8483 126.255C100.87 133.133 113.642 153.199 108.457 147.15C105.143 143.283 102.625 138.151 100.524 133.576C98.3189 128.776 96.2483 120.211 104.651 120.645C111.864 121.019 114.743 128.384 116.012 134.421C116.571 137.084 116.714 139.153 117.909 141.575C119.13 144.052 119.198 134.509 119.662 132.033" stroke="#28D07E" stroke-opacity="0.5" stroke-width="2" stroke-linecap="round" stroke-linejoin="round"/>
<path d="M122.833 112.267C123.057 113.307 126.533 137.092 131.579 132.518C133.704 130.592 134.171 125.844 134.444 123.243C135.296 115.114 131.862 114.11 126.155 112.39C123.433 111.569 122.875 111.606 122.127 114.409C120.592 120.164 123.012 118.547 126.113 115.347" stroke="#28D07E" stroke-opacity="0.5" stroke-width="2" stroke-linecap="round" stroke-linejoin="round"/>
<path d="M144.773 105.557C141.97 110.282 138.395 115.84 140.367 121.627C141.185 124.028 143.088 123.393 144.421 122.042C146.524 119.909 147.621 116.404 147.504 113.475C147.28 107.861 143.763 103.057 140.072 99.0676C139.561 98.5145 134.9 94.6725 135.813 97.9712C137.452 103.896 142.015 109.595 145.194 114.745C150.434 123.232 152.041 119.936 154.395 111.969" stroke="#28D07E" stroke-opacity="0.5" stroke-width="2" stroke-linecap="round" stroke-linejoin="round"/>
<path d="M154.893 107.026C156.633 108.649 170.363 118.456 170.789 109.757C170.827 108.968 169.821 108.721 169.49 108.049C168.635 106.316 167.219 105.173 166.449 104.264" stroke="#28D07E" stroke-opacity="0.5" stroke-width="2" stroke-linecap="round" stroke-linejoin="round"/>
<path d="M156.038 112.921C150.602 105.782 143.008 98.3595 150.792 91.302C154.072 88.3282 160.878 90.6797 160.7 95.6483C160.617 97.9624 160.129 103.685 156.805 104.289C155.048 104.608 154.238 103.458 155.863 101.85" stroke="#28D07E" stroke-opacity="0.5" stroke-width="2" stroke-linecap="round" stroke-linejoin="round"/>
<path d="M168.448 83.3129C171.963 85.5493 197.008 100.35 183.89 106.819C181.845 107.828 180.046 105.478 178.959 103.966C176.509 100.558 183.647 95.7227 183.944 92.1126" stroke="#28D07E" stroke-opacity="0.5" stroke-width="2" stroke-linecap="round" stroke-linejoin="round"/>
<path d="M189.005 71.4142C186.959 73.0849 175.225 83.4619 184.452 85.4683C189.549 86.5765 194.366 81.4977 198.24 78.9626C204.48 74.8787 205.798 82.7372 204.083 87.1727C203.033 89.8891 194.266 98.7785 196.665 91.7115" stroke="#28D07E" stroke-opacity="0.5" stroke-width="2" stroke-linecap="round" stroke-linejoin="round"/>
<path d="M258.261 457.65C250.455 461.578 240.226 468.742 248.665 478.247C252.713 482.807 260.186 480.939 265.517 480.412C267.015 480.264 271.148 481.705 270.023 480.705C267.589 478.542 265.838 478.681 265.108 475.029" stroke="#28D07E" stroke-opacity="0.5" stroke-width="2" stroke-linecap="round" stroke-linejoin="round"/>
<path d="M281.434 455.016C281.434 460.771 281.38 464.891 287.285 467.129C289.835 468.096 291.436 468.983 292.113 471.84C292.878 475.069 290.625 479.747 287.958 481.553C284.661 483.786 280.52 484.565 276.811 483.045C273.634 481.743 277.146 480.204 278.8 478.715" stroke="#28D07E" stroke-opacity="0.5" stroke-width="2" stroke-linecap="round" stroke-linejoin="round"/>
<path d="M307.239 448.697C306.203 452.71 301.534 463.443 305.688 467.597C307.365 469.274 310.612 468.343 312.68 468.826C314.738 469.307 316.503 470.882 317.771 472.513C319.779 475.094 317.868 479.006 315.548 480.822C311.948 483.639 306.806 482.402 302.616 482.402C300.328 482.402 301.891 482.24 303.025 480.822" stroke="#28D07E" stroke-opacity="0.5" stroke-width="2" stroke-linecap="round" stroke-linejoin="round"/>
<path d="M298.16 398.752C302.217 397.204 309.742 394.74 313.666 391.964C317.809 389.034 313.472 388.192 311.267 388.892C307.533 390.079 305.277 393.99 304.011 397.436C300.679 406.507 311.279 416.761 320.191 415.722C328.426 414.761 329.575 410.729 330.811 404.545" stroke="#28D07E" stroke-opacity="0.5" stroke-width="2" stroke-linecap="round" stroke-linejoin="round"/>
<path d="M336.078 394.012C335.155 395.515 326.39 413.561 323.965 405.072" stroke="#28D07E" stroke-opacity="0.5" stroke-width="2" stroke-linecap="round" stroke-linejoin="round"/>
<path d="M319.752 394.539C323.45 399.482 332.384 417.156 341.344 416.658C342.644 416.586 340.92 411.583 340.818 410.865" stroke="#28D07E" stroke-opacity="0.5" stroke-width="2" stroke-linecap="round" stroke-linejoin="round"/>
<path d="M343.977 394.539C346.02 406.506 350.112 442.674 347.781 430.76C346.579 424.617 335.603 391.374 345.265 392.754C349.455 393.353 360.151 399.466 357.348 405.072C355.772 408.224 346.005 409.324 350.297 407.178" stroke="#28D07E" stroke-opacity="0.5" stroke-width="2" stroke-linecap="round" stroke-linejoin="round"/>
<path d="M363.99 402.965C365.291 409.736 366.543 416.502 367.676 423.299C367.87 424.463 367.61 423.504 367.267 422.861C365.113 418.821 362.163 411.623 362.264 407.091C362.359 402.797 368.266 399.869 371.363 402.965" stroke="#28D07E" stroke-opacity="0.5" stroke-width="2" stroke-linecap="round" stroke-linejoin="round"/>
<path d="M380.843 410.865C380.706 415.821 384.301 433.172 392.838 428.127C394.061 427.404 397.079 425.638 397.168 424.031C397.216 423.174 395.657 422.978 395.062 422.978C393.497 422.978 393.106 421.037 392.429 419.818" stroke="#28D07E" stroke-opacity="0.5" stroke-width="2" stroke-linecap="round" stroke-linejoin="round"/>
<path d="M378.209 412.445C382.822 407.673 388.01 401.099 392.107 409.607C393.306 412.098 392.888 415.099 391.902 417.594C390.308 421.625 384.601 423.215 386.109 417.185" stroke="#28D07E" stroke-opacity="0.5" stroke-width="2" stroke-linecap="round" stroke-linejoin="round"/>
<path d="M406.648 402.965C410.257 408.733 424.855 424.281 415.279 431.375C412.215 433.644 410.215 433.634 406.765 433.51C401.894 433.336 404.468 432.102 406.121 428.244" stroke="#28D07E" stroke-opacity="0.5" stroke-width="2" stroke-linecap="round" stroke-linejoin="round"/>
<path d="M428.766 400.859C427.676 402.178 413.594 415.792 422.154 417.243C425.309 417.778 428.209 415.867 431.107 417.799C436.336 421.285 435.097 426.01 430.288 428.975C427.884 430.458 425.202 431.235 422.681 432.457C421.256 433.148 422.774 431.147 422.973 430.351" stroke="#28D07E" stroke-opacity="0.5" stroke-width="2" stroke-linecap="round" stroke-linejoin="round"/>
<path d="M416.654 395.066C415.431 395.964 402.264 403.271 404.132 407.705C406.487 413.299 407.266 406.413 407.701 404.019" stroke="#28D07E" stroke-opacity="0.5" stroke-width="2" stroke-linecap="round" stroke-linejoin="round"/>
<path d="M92.9711 222.793C95.3166 217.263 94.3559 212.444 94.3559 206.712C94.3559 205.597 94.1536 202.201 95.3254 201.593C97.1732 200.634 98.9001 199.994 101.08 199.994C102.53 199.994 103.986 200.036 105.435 199.994C106.884 199.953 108.288 199.363 109.72 199.188C112.386 198.861 115.159 199.316 117.791 199.316C119.881 199.316 122.043 199.587 124.054 199.587C124.411 199.587 125.866 199.757 126.1 199.964C126.818 200.597 126.612 201.612 127.178 202.166" stroke="#28D07E" stroke-opacity="0.5" stroke-linecap="round" stroke-linejoin="round"/>
<path d="M127.04 202.656C127.131 204.288 127.165 206.578 127.837 208.173C128.272 209.206 127.925 210.582 128.013 211.683C128.182 213.795 127.867 215.855 127.867 217.905C127.867 220.654 128.005 223.369 128.005 226.104C128.005 228.451 125.712 228.058 123.898 227.728C122.331 227.443 120.228 228.015 118.595 228.035C115.445 228.074 112.28 228.311 109.124 228.311C106.489 228.311 104.532 227.545 102.105 226.625C100.809 226.133 100.026 226.242 98.6339 226.242C97.3155 226.242 96.2314 226.036 94.9098 226.449C94.1366 226.69 92.7519 226.482 92.3121 225.69C91.7848 224.741 92.8332 224.329 92.8332 223.552C92.8332 222.9 92.7512 221.034 92.9711 222.794" stroke="#28D07E" stroke-opacity="0.5" stroke-linecap="round" stroke-linejoin="round"/>
<path d="M108.695 206.242C108.695 206.242 109.247 206.518 109.799 207.07C110.35 207.483 111.512 207.277 112.488 207.277C113.002 207.277 113.545 206.876 114.005 206.671C114.939 206.256 114.382 207.037 114.159 207.483C113.911 207.978 114.194 208.898 114.641 209.208C115.38 209.719 116.111 209.278 116.833 208.916C117.133 208.766 117.051 208.697 117.143 208.901C117.269 209.178 117.247 209.58 117.247 209.882C117.247 210.569 117.202 211.712 116.833 212.311C116.348 213.099 115.858 213.609 115.078 214.188C114.308 214.761 113.29 215.759 112.266 215.759C110.265 215.759 108.141 215.323 107.14 213.376C106.715 212.551 105.937 211.875 105.937 210.932C105.937 210.144 105.676 209.201 105.937 208.449C106.252 207.537 107.04 206.671 106.764 206.671C106.905 206.711 108.143 205.966 108.695 206.242Z" stroke="#28D07E" stroke-opacity="0.5" stroke-linecap="round" stroke-linejoin="round"/>
<path d="M110.971 205.759C111.747 205.472 113.519 204.87 113.936 203.932C114.259 203.206 113.193 203.07 112.626 203.07C111.938 203.07 111.123 204.02 110.94 204.621C110.839 204.956 110.742 205.298 110.642 205.637C110.593 205.8 110.658 205.918 110.691 206.07C110.717 206.185 111.769 205.632 111.73 205.474" stroke="#28D07E" stroke-opacity="0.5" stroke-linecap="round" stroke-linejoin="round"/>
<path d="M124.908 221.273L94.3696 221.944C91.1392 222.015 88.5574 224.654 88.5574 227.885C88.5574 231.167 91.218 233.828 94.5002 233.828H125.04C128.353 233.828 131.04 231.142 131.04 227.828V227.272C131.04 223.906 128.272 221.199 124.908 221.273Z" stroke="#28D07E" stroke-opacity="0.5"/>
<path d="M101.059 221.777C101.517 222.487 101.912 223.34 102.438 223.997C102.702 224.327 102.66 224.26 103.173 224.07C104.028 223.753 104.997 223.981 105.89 223.981C106.674 223.981 107.585 223.571 108.347 223.777C109.229 224.014 110.269 223.561 111.138 223.54C112.184 223.515 113.182 223.613 114.222 223.613C114.85 223.613 115.461 223.246 116.042 223.246C116.379 223.246 117.34 223.513 117.364 222.895C117.376 222.594 117.511 222.302 117.511 221.997C117.511 221.586 117.265 221.764 116.85 221.557" stroke="#28D07E" stroke-opacity="0.5" stroke-linecap="round" stroke-linejoin="round"/>
<path d="M250.48 71.0062C251.046 70.2862 252.131 68.9538 250.611 68.7182C250.267 68.6649 249.945 68.4628 249.608 68.6158C248.568 69.0869 247.602 70.1242 247.602 71.3575C247.602 73.3274 249.763 73.7539 251.332 73.7284C253.98 73.6854 254.786 71.1056 255.721 69.0158C256.666 66.9049 257.715 64.8281 258.695 62.7323C259.804 60.3608 261.623 58.4717 262.774 56.1219C263.267 55.1143 263.911 54.227 264.547 53.307C265.532 51.8799 266.235 50.4402 266.94 48.8578C267.518 47.5596 268.159 46.3741 268.867 45.1453C269.154 44.6484 269.046 43.8871 269.594 44.4184C270.01 44.8217 270.672 45.0867 271.231 45.1892C273.678 45.6373 275.929 46.1116 278.449 45.9112C280.998 45.7085 283.545 45.3434 286.054 44.8574C286.907 44.6922 286.543 44.8911 286.141 45.4087C285.459 46.2866 284.876 47.217 284.223 48.1065C283.371 49.2666 283.071 50.6636 282.566 51.9898C282.012 53.4477 281.352 54.8402 280.822 56.3219C279.799 59.1856 278.306 61.7972 276.458 64.2007C275.387 65.5936 274.065 68.0264 272.06 67.9279C268.957 67.7755 271.052 61.6678 272.534 60.4735C273.332 59.8306 274.205 60.5228 274.302 61.3858C274.436 62.5717 274.029 64.1967 272.878 64.7764C271.664 65.388 270.733 65.3146 271.667 63.7373C272.233 62.7829 272.569 63.8332 272.801 63.3665" stroke="#28D07E" stroke-opacity="0.5" stroke-width="2" stroke-linecap="round" stroke-linejoin="round"/>
<path d="M484.308 283.769C484.874 283.048 485.959 281.716 484.439 281.481C484.095 281.427 483.773 281.225 483.436 281.378C482.396 281.849 481.431 282.887 481.431 284.12C481.431 286.09 483.591 286.516 485.16 286.491C487.808 286.448 488.614 283.868 489.549 281.778C490.494 279.667 491.543 277.59 492.523 275.495C493.632 273.123 495.451 271.234 496.602 268.884C497.095 267.877 497.74 266.989 498.375 266.069C499.36 264.642 500.063 263.202 500.768 261.62C501.346 260.322 501.987 259.136 502.696 257.908C502.982 257.411 502.874 256.649 503.422 257.181C503.838 257.584 504.5 257.849 505.059 257.951C507.507 258.4 509.757 258.874 512.277 258.673C514.826 258.471 517.373 258.106 519.882 257.62C520.735 257.455 520.371 257.653 519.969 258.171C519.287 259.049 518.705 259.979 518.051 260.869C517.199 262.029 516.899 263.426 516.394 264.752C515.84 266.21 515.18 267.602 514.651 269.084C513.627 271.948 512.134 274.56 510.286 276.963C509.215 278.356 507.893 280.789 505.888 280.69C502.785 280.538 504.88 274.43 506.363 273.236C507.16 272.593 508.033 273.285 508.131 274.148C508.264 275.334 507.858 276.959 506.706 277.539C505.492 278.15 504.561 278.077 505.495 276.5C506.061 275.545 506.397 276.596 506.629 276.129" stroke="#28D07E" stroke-opacity="0.5" stroke-width="2" stroke-linecap="round" stroke-linejoin="round"/>
<path d="M459.306 159.664C456.71 154.959 456.863 153.615 457.455 148.879C457.781 146.272 457.906 143.723 458.565 141.158C459.745 136.57 460.128 130.391 456.434 126.697C449.165 119.428 435.628 129.766 439.727 138.988C441.287 142.498 443.983 145.097 445.93 148.407C446.711 149.735 447.148 151.174 448.164 152.415C449.137 153.605 450.346 155.086 450.346 156.563C450.346 157.811 449.974 159.429 450.857 160.532C452.076 162.056 451.642 161.272 453.447 161.272C454.688 161.272 456.518 160.286 457.519 159.486C458.233 158.914 458.617 160.567 458.617 158.975C458.617 157.608 458.177 158.745 459.076 158.745" stroke="#28D07E" stroke-opacity="0.5" stroke-linecap="round" stroke-linejoin="round"/>
<path d="M453.562 164.029C456.019 163.297 462.819 161.661 461.245 163.685C459.346 166.126 458.534 164.903 456.204 165.421C455.012 165.685 453.851 169.363 455.17 169.441C457.055 169.552 458.305 167.016 460.224 167.016C461.972 167.016 461.846 169.315 460.799 170.13C459.415 171.206 457.824 170.05 456.893 171.726C455.422 174.374 459.441 173.943 460.582 173.321C461.731 172.694 462.824 171.715 463.67 171.151" stroke="#28D07E" stroke-opacity="0.5" stroke-linecap="round" stroke-linejoin="round"/>
<path d="M459.306 158.918C459.275 159.118 459.242 160.468 458.703 160.468C458.412 160.468 458.279 160.292 458.014 160.44C457.702 160.613 457.409 161.021 457.111 161.26C456.848 161.47 456.067 161.444 455.917 161.706C455.672 162.135 455.175 162.37 454.711 162.421C454.109 162.488 453.887 162.79 453.246 162.648C453.051 162.604 453.031 162.479 452.848 162.479C452.565 162.479 452.442 162.614 452.229 162.377C451.992 162.114 451.606 161.991 451.492 161.592C451.337 161.049 450.768 160.764 451.61 161.1" stroke="#28D07E" stroke-opacity="0.5" stroke-linecap="round" stroke-linejoin="round"/>
<path d="M448.221 136.174C449.249 136.179 450.098 136.246 450.448 137.335C450.686 138.077 450.691 138.805 450.691 139.575C450.691 140.324 450.231 140.926 450.231 141.63C450.231 142.561 450.976 142.409 451.606 142.693C452.202 142.961 452.633 143.184 452.956 143.784C453.276 144.377 453.034 145.525 452.991 146.171C452.954 146.726 452.69 147.906 453.074 148.375C453.283 148.63 454.423 149.024 453.677 148.465" stroke="#28D07E" stroke-opacity="0.5" stroke-linecap="round" stroke-linejoin="round"/>
<path d="M439.548 146.569C438.725 147.116 437.887 147.574 436.967 147.919C436.581 148.064 436.073 148.322 436.16 147.718" stroke="#28D07E" stroke-opacity="0.5" stroke-linecap="round" stroke-linejoin="round"/>
<path d="M436.562 138.643C435.104 138.995 433.655 139.39 432.21 139.779C431.969 139.844 432.521 139.236 432.542 139.218" stroke="#28D07E" stroke-opacity="0.5" stroke-linecap="round" stroke-linejoin="round"/>
<path d="M436.16 131.12C434.65 130.9 433.144 130.628 431.642 130.36C430.95 130.237 430.657 130.328 431.048 129.741" stroke="#28D07E" stroke-opacity="0.5" stroke-linecap="round" stroke-linejoin="round"/>
<path d="M444.315 123.136C443.122 122.927 442.088 122.725 441.01 122.185C440.505 121.933 440.019 121.63 439.491 121.426C438.863 121.184 438.85 121.258 439.548 120.839" stroke="#28D07E" stroke-opacity="0.5" stroke-linecap="round" stroke-linejoin="round"/>
<path d="M454.711 117.967C454.885 119.186 454.828 119.916 454.335 121.021C454.069 121.616 453.844 122.369 453.713 123.012C453.667 123.233 453.642 123.359 453.492 123.526C453.436 123.588 453.642 122.848 453.677 122.734" stroke="#28D07E" stroke-opacity="0.5" stroke-linecap="round" stroke-linejoin="round"/>
<path d="M463.498 122.849C463.117 124.118 462.574 125.336 462.248 126.608C462.083 127.251 462.186 127.29 462.465 126.64" stroke="#28D07E" stroke-opacity="0.5" stroke-linecap="round" stroke-linejoin="round"/>
<path d="M467.174 131.981C465.869 133.11 464.799 134.512 463.786 135.899C463.659 136.073 463.512 136.135 463.371 136.276C463.051 136.596 463.603 135.873 463.671 135.772" stroke="#28D07E" stroke-opacity="0.5" stroke-linecap="round" stroke-linejoin="round"/>
<path d="M174.734 247.189C176.644 255.791 178.794 264.412 180.057 273.144C180.763 278.022 179.213 270.983 179.021 269.988C178.604 267.834 178.126 265.926 178.126 263.723C178.126 259.29 178.007 254.807 177.678 250.369C177.448 247.262 173.632 238.011 178.455 245.729C183.374 253.598 186.846 262.299 190.185 270.883C190.645 272.066 191.282 273.187 191.786 274.322C192.062 274.942 186.899 269.896 184.909 268.811" stroke="#28D07E" stroke-opacity="0.5" stroke-width="2" stroke-linecap="round" stroke-linejoin="round"/>
<path d="M171.766 266.267C177.278 264.067 189.431 259.919 192.964 253.737C194.444 251.147 194.156 252.344 189.996 253.124" stroke="#28D07E" stroke-opacity="0.5" stroke-width="2" stroke-linecap="round" stroke-linejoin="round"/>
<path d="M188.301 237.438C192.554 245.858 195.635 254.824 196.803 264.171C196.911 265.037 197.112 265.987 197.722 266.597C197.835 266.71 195.682 262.679 195.084 261.603" stroke="#28D07E" stroke-opacity="0.5" stroke-width="2" stroke-linecap="round" stroke-linejoin="round"/>
<path d="M188.301 237.014C191.599 238.99 203.713 246.287 195.814 250.934C195.121 251.342 194.308 251.718 193.812 252.371C192.762 253.752 192.636 254.157 193.388 252.276" stroke="#28D07E" stroke-opacity="0.5" stroke-width="2" stroke-linecap="round" stroke-linejoin="round"/>
<path d="M199.323 232.775C200.728 242.293 203.139 252.752 203.139 262.451C203.139 264.592 202.781 260.627 202.291 259.484" stroke="#28D07E" stroke-opacity="0.5" stroke-width="2" stroke-linecap="round" stroke-linejoin="round"/>
<path d="M209.074 249.733C211.402 256.671 212.598 260.76 205.777 262.781C203.446 263.472 206.262 260.086 206.86 259.672C208.901 258.259 210.933 253.711 208.65 251.428C207.742 250.52 205.568 251.667 204.929 250.581C203.986 248.979 206.098 245.945 207.378 245.163C211.059 242.914 210.596 246.084 209.074 245.069" stroke="#28D07E" stroke-opacity="0.5" stroke-width="2" stroke-linecap="round" stroke-linejoin="round"/>
<path d="M336.425 120.985C337.831 128.379 343.616 149.97 340.25 143.238C339.888 142.513 339.585 141.898 339.555 141.075C339.442 138.03 339.215 134.847 338.164 131.957C337.285 129.54 337.469 127.034 337.469 124.462C337.469 123.947 336.593 119.892 336.677 119.865C337.562 119.57 341.213 124.006 341.873 124.771C345.211 128.639 348.586 133.084 350.971 137.617C352.199 139.95 352.569 140.786 349.638 141.152" stroke="#28D07E" stroke-opacity="0.5" stroke-width="2" stroke-linecap="round" stroke-linejoin="round"/>
<path d="M336.078 135.936C339.341 134.281 342.449 132.958 345.814 131.764" stroke="#28D07E" stroke-opacity="0.5" stroke-width="2" stroke-linecap="round" stroke-linejoin="round"/>
<path d="M345.466 121.333C348.807 126.337 351.989 131.663 355.878 136.284C356.433 136.943 357.597 138.14 357.597 136.593C357.597 134.482 356.428 132.3 355.897 130.296C355.049 127.09 354.259 123.869 353.541 120.637C352.847 117.517 353.336 118.682 354.507 121.024C356.447 124.903 358.489 128.437 361.19 131.88C363.01 134.199 363.199 132.908 363.199 130.875C363.199 127.184 361.397 124.148 360.07 120.83C358.652 117.286 358.747 112.448 357.134 109.221C356.506 107.966 356.419 111.943 356.245 113.335" stroke="#28D07E" stroke-opacity="0.5" stroke-width="2" stroke-linecap="round" stroke-linejoin="round"/>
<path d="M364.242 108.815C364.331 109.224 365.626 119.347 367.913 118.203C368.915 117.702 369.16 116.169 370.192 115.653C371.864 114.818 373.671 116.298 374.326 117.74C376.059 121.552 374.064 125.967 370.926 128.287C366.579 131.5 368.067 125.716 368.067 124.114" stroke="#28D07E" stroke-opacity="0.5" stroke-width="2" stroke-linecap="round" stroke-linejoin="round"/>
<path d="M366.329 108.12C365.703 109.83 364.565 117.768 364.223 114.688C364.012 112.786 364.387 111.34 364.59 109.511C365.072 105.172 368.393 108.662 367.024 106.381" stroke="#28D07E" stroke-opacity="0.5" stroke-width="2" stroke-linecap="round" stroke-linejoin="round"/>
<path d="M343.14 336.508C343.024 336.295 338.008 327.657 338.442 327.408C339.044 327.064 340.167 327.399 340.876 327.133C342.969 326.348 344.655 324.728 346.378 323.388C348.19 321.978 350.672 333.036 351.224 335.365C351.891 338.183 353.629 341.929 350.377 343.555C347.446 345.021 343.589 344.578 340.389 344.507C335.168 344.391 331.56 335.821 330.951 331.556C330.507 328.451 326.207 318.483 330.824 316.489C332.06 315.955 334.16 316.32 335.501 316.32C337.419 316.32 339.094 315.177 341.045 315.177C344.149 315.177 345.088 319.055 342.378 314.796" stroke="#28D07E" stroke-opacity="0.5" stroke-width="2" stroke-linecap="round" stroke-linejoin="round"/>
<path d="M351.901 317.843C352.442 319.815 354.183 330.762 358.757 327.959C359.628 327.425 360.261 326.131 360.577 325.208C361.42 322.742 361.597 320.683 359.709 318.796C358.295 317.381 355.564 314.494 353.509 314.415C348.413 314.219 352.909 319.927 352.282 318.986" stroke="#28D07E" stroke-opacity="0.5" stroke-width="2" stroke-linecap="round" stroke-linejoin="round"/>
<path d="M352.663 300.321C356.425 306.27 362.102 312.812 364.386 319.663C364.677 320.537 364.688 321.131 365.233 321.949C366.055 323.182 366.444 324.972 367.222 323.091C368.349 320.368 370.917 317.951 372.936 315.854C375.426 313.268 375.767 314.034 371.327 314.034" stroke="#28D07E" stroke-opacity="0.5" stroke-width="2" stroke-linecap="round" stroke-linejoin="round"/>
<path d="M378.946 298.417C378.473 299.484 371.297 313.685 378.226 310.458C379.605 309.816 381.011 308.817 380.829 307.178C380.653 305.598 379.334 304.356 378.649 302.988C378.263 302.214 376.717 298.489 377.253 299.559C378.844 302.741 380.98 308.408 383.347 310.775C386.105 313.533 387.757 310.635 385.04 309.082" stroke="#28D07E" stroke-opacity="0.5" stroke-width="2" stroke-linecap="round" stroke-linejoin="round"/>
<path d="M383.136 299.94C393.738 316.758 380.322 297.888 383.411 294.586C386.4 291.391 389.931 297.527 391.05 299.475C392.999 302.868 394.918 311.671 391.897 302.607" stroke="#28D07E" stroke-opacity="0.5" stroke-width="2" stroke-linecap="round" stroke-linejoin="round"/>
<path d="M396.468 285.466C396.288 286.101 390.601 302.105 394.859 300.618C396.669 299.986 398.486 298.555 399.451 296.914C400.565 295.02 401.084 292.423 400.277 290.333C399.726 288.908 399.131 287.386 398.372 286.058C396.569 282.904 401.428 292.652 402.88 295.983C405.006 300.86 410.128 317.959 398.055 314.563C392.789 313.082 397.748 304.892 397.229 304.892" stroke="#28D07E" stroke-opacity="0.5" stroke-width="2" stroke-linecap="round" stroke-linejoin="round"/>
<path d="M246.549 206.765C248.442 206.245 250.056 205.721 251.387 204.223C251.912 203.633 251.983 202.879 252.251 202.164C252.6 201.235 252.166 200.046 251.868 199.154C251.631 198.441 252.93 198.041 253.394 198.011C254.191 197.96 254.801 198.467 255.567 198.512C256.488 198.566 257.47 198.861 258.109 199.58C258.542 200.067 259.123 200.182 259.602 200.605C260.057 201.006 260.416 201.706 260.745 202.22C261.697 203.707 261.966 205.442 262.243 207.143C262.375 207.959 262.456 208.846 262.318 209.67C262.154 210.654 262.329 211.6 261.94 212.543C261.672 213.194 261.243 214.057 260.632 214.442C260.005 214.837 259.422 214.979 259.262 215.798C258.927 217.508 259.786 219.183 259.455 220.909C259.162 222.442 257.136 222.676 255.884 222.922C255.019 223.091 253.448 223.356 252.615 222.903C251.063 222.059 249.939 221.005 248.788 219.662C247.769 218.472 247.383 216.733 247.248 215.212C247.111 213.659 247.109 211.973 247.144 210.403C247.167 209.361 247.471 208.314 247.569 207.275C247.65 206.425 247.92 206.357 247.484 207.445" stroke="#28D07E" stroke-opacity="0.5" stroke-linecap="round" stroke-linejoin="round"/>
<path d="M257.519 199.027C258.158 197.378 258.861 195.73 259.352 194.029C259.572 193.265 259.625 192.455 259.9 191.709C260.219 190.842 260.377 189.862 260.514 188.955C260.612 188.305 260.66 187.154 261.255 186.744C261.69 186.445 261.938 185.762 262.403 185.402C263.001 184.941 263.851 184.512 264.274 183.895C264.69 183.29 265.134 182.04 264.784 181.34C264.59 180.951 264.617 180.532 264.425 180.149C264.176 179.651 263.952 179.247 263.764 178.708C263.599 178.237 263.08 177.295 263.684 176.96C265.159 176.141 265.262 177.431 265.72 178.609C265.956 179.218 265.992 179.961 266.211 180.593C266.361 181.026 266.627 180.713 266.83 180.962C267.136 181.336 267.151 181.804 267.383 182.209C267.729 182.815 267.322 184.044 267.146 184.637C266.821 185.735 266.486 186.729 266.003 187.783C264.76 190.499 262.734 192.786 261.345 195.418C260.816 196.419 260.393 197.428 260.136 198.536C259.989 199.165 259.559 199.765 259.559 200.43C259.559 201.037 259.409 201.348 259.729 200.387" stroke="#28D07E" stroke-opacity="0.5" stroke-linecap="round" stroke-linejoin="round"/>
<path d="M264.151 178.534C263.068 178.7 261.887 178.763 260.92 179.247C260.787 179.313 260.993 179.14 261.09 179.129C262.386 178.976 263.802 177.82 264.983 177.258C265.861 176.84 267.062 175.898 268.063 175.898C268.353 175.898 267.099 176.705 266.957 176.833" stroke="#28D07E" stroke-opacity="0.5" stroke-linecap="round" stroke-linejoin="round"/>
<path d="M263.046 180.404C264.251 179.704 266.35 178.944 267.231 177.768C267.317 177.654 267.38 177.5 267.505 177.428C267.943 177.178 267.169 177.457 267.042 177.513" stroke="#28D07E" stroke-opacity="0.5" stroke-linecap="round" stroke-linejoin="round"/>
<path d="M263.896 181.51C265.342 180.956 267.986 180.464 268.781 178.874C268.896 178.644 268.641 178.704 268.488 178.704" stroke="#28D07E" stroke-opacity="0.5" stroke-linecap="round" stroke-linejoin="round"/>
<path d="M265.427 181.34C265.334 183.29 265.354 185.273 264.241 186.943C263.698 187.757 263.322 188.299 263.131 189.253C262.927 190.272 262.703 191.123 262.238 192.054C261.779 192.972 261.24 193.724 260.788 194.605C260.553 195.062 259.976 195.502 260.088 196.051C260.145 196.328 260.008 196.576 259.918 196.835C259.653 197.603 259.156 198.279 258.69 198.942C258.374 199.392 258.378 200.2 258.794 199.367" stroke="#28D07E" stroke-opacity="0.5" stroke-linecap="round" stroke-linejoin="round"/>
<path d="M258.539 197.071C259.306 197.238 260.473 197.751 261.26 197.751C261.274 197.751 260.591 196.927 260.495 196.816" stroke="#28D07E" stroke-opacity="0.5" stroke-linecap="round" stroke-linejoin="round"/>
<path d="M259.049 193.585C260.134 194.048 261.221 194.507 262.299 194.988C262.552 195.1 262.537 195.117 262.45 195.03C262.264 194.843 262.105 194.641 261.94 194.435" stroke="#28D07E" stroke-opacity="0.5" stroke-linecap="round" stroke-linejoin="round"/>
<path d="M260.07 191.289C261.377 191.695 262.682 192.133 264.005 192.489C264.153 192.529 264.36 192.608 264.217 192.46C263.932 192.165 263.604 191.905 263.301 191.629" stroke="#28D07E" stroke-opacity="0.5" stroke-linecap="round" stroke-linejoin="round"/>
<path d="M260.75 188.398C262.238 189.125 263.72 189.909 265.247 190.557C265.498 190.663 265.582 190.741 265.531 190.542C265.461 190.273 265.357 190.018 265.257 189.758" stroke="#28D07E" stroke-opacity="0.5" stroke-linecap="round" stroke-linejoin="round"/>
<path d="M262.62 186.357C262.756 186.422 266.873 188.655 266.532 187.802" stroke="#28D07E" stroke-opacity="0.5" stroke-linecap="round" stroke-linejoin="round"/>
<path d="M263.471 184.996C264.713 185.288 265.969 185.554 267.212 185.762" stroke="#28D07E" stroke-opacity="0.5" stroke-linecap="round" stroke-linejoin="round"/>
<path d="M264.832 183.636C265.399 183.663 265.965 183.691 266.532 183.721" stroke="#28D07E" stroke-opacity="0.5" stroke-linecap="round" stroke-linejoin="round"/>
<path d="M253.607 209.146C253.016 209.381 249.377 210.286 249.355 211.291C249.347 211.684 249.355 212.077 249.402 212.467C249.549 213.678 250.392 214.312 251.424 214.891C252.737 215.626 254.151 215.649 255.582 215.231C256.942 214.833 257.826 213.329 257.282 212.037C257.169 211.769 257.56 211.715 257.306 211.404C257.059 211.102 256.896 211.277 256.498 211.357" stroke="#28D07E" stroke-opacity="0.5" stroke-linecap="round" stroke-linejoin="round"/>
<path d="M251.821 212.292C252.498 210.581 253.342 208.87 253.735 207.063C253.837 206.589 253.964 206.191 254.221 205.764C254.763 204.86 255.241 203.895 255.563 202.891C255.868 201.938 255.888 200.998 256.29 200.066C256.434 199.734 257.291 198.737 256.923 199.197" stroke="#28D07E" stroke-opacity="0.5" stroke-linecap="round" stroke-linejoin="round"/>
<path d="M258.539 200.047C258.223 202.017 257.749 203.902 257.415 205.849C257.229 206.928 256.923 207.83 256.923 208.967C256.923 209.779 257.213 210.457 257.027 211.272C256.813 212.21 256.62 211.748 256.243 211.102" stroke="#28D07E" stroke-opacity="0.5" stroke-linecap="round" stroke-linejoin="round"/>
<path d="M257.689 200.047C257.097 201.277 255.818 203.299 255.818 204.852C255.818 205.735 255.875 206.672 255.813 207.568C255.74 208.634 254.908 210.015 254.41 210.932C254.245 211.236 254.03 211.471 253.928 211.801C253.801 212.213 253.892 212.238 253.607 211.782" stroke="#28D07E" stroke-opacity="0.5" stroke-linecap="round" stroke-linejoin="round"/>
<path d="M251.566 210.507C253.014 211.543 255.571 213.657 257.349 211.829C257.626 211.544 258.026 210.936 258.18 210.573C258.39 210.076 257.71 210.498 257.263 210.592" stroke="#28D07E" stroke-opacity="0.5" stroke-linecap="round" stroke-linejoin="round"/>
<path d="M253.267 208.976C254.093 208.95 255.762 209.173 256.564 208.759C256.591 208.745 256.503 208.768 256.479 208.787C256.4 208.85 256.236 208.747 256.158 208.721" stroke="#28D07E" stroke-opacity="0.5" stroke-linecap="round" stroke-linejoin="round"/>
<path d="M254.202 205.83C254.808 205.99 257.001 206.924 257.093 205.915" stroke="#28D07E" stroke-opacity="0.5" stroke-linecap="round" stroke-linejoin="round"/>
<path d="M255.223 203.279C255.974 203.769 259.023 206.04 258.539 203.619" stroke="#28D07E" stroke-opacity="0.5" stroke-linecap="round" stroke-linejoin="round"/>
<path d="M256.073 202.088C256.838 202.287 257.603 202.485 258.369 202.683" stroke="#28D07E" stroke-opacity="0.5" stroke-linecap="round" stroke-linejoin="round"/>
<path d="M259.814 202.088C260.761 202.98 262.65 205.054 262.706 206.614C262.751 207.886 262.706 209.116 262.706 210.403C262.706 211.339 262.884 212.338 262.791 213.228C262.668 214.396 260.874 214.411 261.303 215.783C261.446 216.242 261.321 216.513 261.723 216.842C262.07 217.125 262.322 217.455 262.45 217.905C262.751 218.955 262.153 219.903 261.43 220.626C260.978 221.078 260.391 221.987 259.857 222.284C259.593 222.43 259.054 222.326 258.751 222.326C258.471 222.326 257.904 222.509 257.651 222.624C257.278 222.794 256.802 222.494 256.328 222.667" stroke="#28D07E" stroke-opacity="0.5" stroke-linecap="round" stroke-linejoin="round"/>
<path d="M246.549 207.02C246.892 208.159 247.147 209.106 247.721 210.081C247.956 210.482 247.924 210.846 247.82 211.314C247.699 211.859 247.301 213.136 247.612 213.695C248.09 214.555 248.08 215.465 248.08 216.417C248.08 217.334 249.513 217.732 249.984 218.202C250.682 218.901 250.379 219.792 251.528 220.097C251.78 220.163 252.173 220.167 252.369 220.328C252.518 220.45 252.693 220.755 252.889 220.791C253.294 220.865 253.836 220.784 254.202 220.947C254.508 221.083 254.731 221.279 255.01 221.434C255.317 221.604 255.738 221.412 256.073 221.58C257.216 222.152 256.706 221.608 255.903 220.966" stroke="#28D07E" stroke-opacity="0.5" stroke-linecap="round" stroke-linejoin="round"/>
<path d="M161.926 164.311C159.654 167.219 149.898 178.853 158.211 181.486C160.791 182.303 164.148 180.424 166.929 180.696C170.861 181.079 173.072 184.422 174.039 187.893C175.153 191.89 169.007 198.998 171.962 201.147C177.022 204.827 184.31 198.604 188.492 203.546C190.862 206.347 188.37 210.417 189.838 203.809" stroke="#28D07E" stroke-opacity="0.5" stroke-linecap="round" stroke-linejoin="round"/>
<path d="M276.041 119.02C278.231 121.922 283.443 128.459 285.404 132.186C287.072 135.359 284.969 135.232 283.18 133.971C281.04 132.464 281.341 129.258 281.951 127.037C284.013 119.541 297.356 112.649 298.862 124.17C299.391 128.217 295.774 135.021 290.846 133.415C284.339 131.295 284.754 121.365 289.675 117.675C294.709 113.899 302.958 118.237 302.958 124.404C302.958 131.25 294.821 133.37 291.665 127.33C288.796 121.84 293.879 116.097 299.33 115.275C301.335 114.973 306.514 117.289 302.9 118.494" stroke="#28D07E" stroke-opacity="0.5" stroke-linecap="round" stroke-linejoin="round"/>
<path d="M386.108 171.158C382.698 174.546 371.921 182.447 380.988 185.523C386.264 187.313 391.148 184.379 394.418 180.374C398.025 175.955 398.637 168.966 392.896 166.096C388.431 163.864 384.584 160.278 380.842 165.891" stroke="#28D07E" stroke-opacity="0.5" stroke-linecap="round" stroke-linejoin="round"/>
<path d="M502.496 217.502C495.984 221.381 486.096 226.066 496.176 229.732C497.726 230.295 498.734 229.928 500.097 228.971C505.136 225.43 505.432 224.012 505.129 218.555C504.929 214.942 499.645 215.768 497.23 216.975C493.667 218.756 491.183 222.321 489.74 225.928C487.798 230.782 497.835 230.485 499.219 224.641C500.087 220.977 495.896 215.773 493.017 220.252C489.201 226.187 495.023 231.494 498.693 225.285C502.207 219.337 493.995 216.884 491.788 223.822C488.885 232.944 506.139 223.039 499.863 219.901C496.122 218.031 489.805 229.908 496.703 226.952C505.078 223.363 495.708 218.073 495.708 226.455C495.708 233.257 506.958 223.385 499.629 220.72C497.953 220.111 496.299 225.466 497.493 226.66C499.569 228.736 503.178 223.359 502.993 221.423C502.202 213.112 494.066 234.241 503.754 224.553C505.967 222.34 505.876 218.34 502.203 220.691C500.036 222.078 498.665 227.966 502.759 226.601C506.692 225.29 506.691 218.007 502.467 219.696C499.889 220.728 498.955 224.377 496.176 223.822" stroke="#28D07E" stroke-opacity="0.5" stroke-linecap="round" stroke-linejoin="round"/>
<path d="M445.619 271.746C444.532 272.946 427.179 294.357 435.905 283.449C437.901 280.954 439.734 278.5 442.459 276.749C444.138 275.669 445.756 275.003 447.199 273.56C448.775 271.983 446.54 272.087 446.175 275.374C445.857 278.236 446.1 290.733 445.619 290.705C442.366 290.514 440.233 287.312 437.222 286.258C435.609 285.693 430.826 286.506 432.16 285.438C435.422 282.829 445.413 275.346 442.459 278.3C440.221 280.537 435.622 288.947 437.193 286.199C438.309 284.245 441.328 277.879 440.879 278.943C439.953 281.136 438.342 284.893 438.48 287.311C438.611 289.606 443.17 283.958 443.454 283.39C445.567 279.164 441.195 288.668 442.752 286.404C444.154 284.364 448.894 279.179 445.502 284.268C444.759 285.382 449.016 280.244 448.252 281.342C448.03 281.661 446.101 284.898 447.228 283.771C451.266 279.733 445.316 283.931 444.565 282.805" stroke="#28D07E" stroke-opacity="0.5" stroke-linecap="round" stroke-linejoin="round"/>
<path d="M410.334 359.168C412.177 356.543 422.712 344.961 414.05 344.451C412.586 344.365 409.567 343.89 408.344 344.89C405.437 347.269 406.698 353.685 410.627 354.399C415.837 355.346 420.719 348.222 415.074 345.475C409.176 342.606 395.254 354.131 401.264 358.875C413.097 368.217 423.797 341.07 408.491 344.978C394.607 348.523 406.838 362.823 413.143 353.609C419.893 343.744 399.079 343.659 402.756 354.692C404.57 360.133 410.523 357.507 411.592 353.112C413.159 346.668 406.751 349.329 406.648 353.785C406.536 358.56 413.894 349.92 409.486 350.303C406.3 350.58 405.985 354.955 403.488 354.955" stroke="#28D07E" stroke-opacity="0.5" stroke-linecap="round" stroke-linejoin="round"/>
<path d="M200.732 309.664C201.795 314.489 203.891 329.088 203.891 324.146C203.891 320.735 201.286 317.552 200.761 314.14C200.577 312.948 200.956 309.422 199.942 308.611C199.248 308.056 205.806 313.16 207.549 314.14C210.729 315.929 213.009 319.271 215.77 315.72C217.096 314.016 220.996 313.78 221.534 313.35C225.433 310.231 225.076 305.575 225.981 301.501C226.304 300.048 225.484 306.462 225.484 308.347C225.484 310.759 225.919 313.953 226.566 316.218C227.485 319.434 227.117 310.357 226.244 308.611C224.826 305.774 224.957 303.257 224.957 300.184C224.957 298.971 233.761 314.179 232.213 315.34C231.566 315.825 222.945 313.447 220.334 314.287C218.085 315.01 216.031 315.853 213.898 316.92C213.314 317.211 212.352 318.273 212.727 317.973C214.064 316.903 218.155 313.979 216.531 314.521C214.299 315.265 212.108 317.424 210.094 318.617C206.298 320.866 205.07 320.552 203.482 324.41C203.253 324.966 206.086 324.895 206.642 325.053C210.627 326.192 213.132 323.088 216.648 321.66C221.186 319.816 226.403 316.03 231.277 315.457C234.955 315.024 229.362 313.734 229.17 313.35" stroke="#28D07E" stroke-opacity="0.5" stroke-linecap="round" stroke-linejoin="round"/>
<path d="M401.908 106.908C411.833 103.726 427.908 100.067 436.783 92.8056C438.393 91.488 440.887 90.2249 440.323 87.6855C438.203 78.1454 433.59 75.908 424.495 76.9186C419.45 77.4792 414.607 82.1327 409.924 84.0283C405.103 85.9798 400.279 88.5438 395.881 91.3427C391.429 94.1755 394.008 95.5788 394.008 100.471C394.008 103.161 395.615 106.908 398.484 106.908C399.792 106.908 403.541 105.855 399.83 105.855C396.918 105.855 392.397 106.296 389.795 104.918C387.808 103.866 391.73 101.795 392.662 101.671C395.991 101.227 388.848 104.483 388.127 104.714C386.645 105.188 393.476 100.011 389.678 101.232C385.561 102.555 391.671 99.0064 392.955 98.3646C394.404 97.6401 393.14 98.7871 393.481 98.189C394.028 97.2321 397.193 93.7164 394.33 96.5798C393.371 97.5385 396.494 94.9448 397.548 94.0929C399.535 92.4886 397.014 94.9227 396.524 95.3218C394.265 97.1605 393.736 95.6768 391.901 96.4921C391.135 96.8329 389.268 97.9632 389.268 96.6384C389.268 94.3526 397.333 93.3114 398.806 93.2445C407.827 92.8344 414.14 88.8553 422.447 86.7785C426.444 85.7791 430.813 84.3398 434.559 82.5654C437.338 81.2494 442.903 77.1292 445.853 77.9719C447.012 78.3031 429.129 88.7084 434.267 85.3156C438.517 82.5091 443.39 80.5383 437.017 85.813C431.911 90.0386 440.893 85.1166 441.61 85.4034C442.898 85.9185 433.681 91.183 440.703 87.9488C443.389 86.7119 445.619 86.6508 445.619 83.7357C445.619 79.7787 446.701 75.0887 441.669 76.9186C435.862 79.0303 431.201 83.5438 425.197 85.3156C421.058 86.537 417.025 88.0795 412.967 89.5287C408.258 91.2104 399.735 93.0908 396.378 97.1943C394.589 99.3811 391.402 107.904 397.987 104.216C404.028 100.833 404.989 93.9889 408.227 88.5925C409.836 85.9121 405.425 94.2537 404.775 97.3113C404.028 100.828 407.337 104.875 411.124 104.216C415.278 103.494 419.647 97.7573 421.13 94.2685C428.257 77.4999 415.33 93.7638 418.994 97.4283C422.883 101.317 428.809 91.0151 429.585 88.4755C430.52 85.4154 431.07 81.6434 432.189 78.7326C433.641 74.9575 424.371 79.2093 423.5 79.6396C418.678 82.0227 415.311 85.2016 412.031 89.4117C410.843 90.9356 406.077 98.1087 409.339 99.7397C413.711 101.925 419.077 95.1316 419.199 91.606C419.611 79.663 409.777 85.7839 403.839 90.465C400.169 93.3575 403.357 99.1387 404.014 98.4816" stroke="#28D07E" stroke-opacity="0.5" stroke-linecap="round" stroke-linejoin="round"/>
<path d="M268.668 392.346C268.439 392.529 259.774 400.003 259.774 397.876C259.774 396.63 260.733 395.296 261.588 394.482C263.278 392.872 269.954 391.634 268.346 395.565C267.268 398.201 262.86 402.087 261.617 397.115C261.101 395.051 264.644 390.908 266.796 392.668C269.168 394.609 264.068 397.082 262.465 396.208C259.604 394.647 263.04 389.09 265.801 390.24C268.688 391.443 264.717 394.731 263.402 395.389C260.326 396.927 260.756 394.441 259.189 392.873" stroke="#28D07E" stroke-opacity="0.5" stroke-linecap="round" stroke-linejoin="round"/>
<path d="M125.949 391.82C128.985 396.822 134.767 402.013 128.875 406.566C127.355 407.74 118.39 412.435 118.927 406.975C119.581 400.326 129.49 400.178 130.103 394.219C130.71 388.325 116.635 390.546 113.427 386.553C111.417 384.052 109.796 378.509 110.267 375.318C110.45 374.075 113.602 371.663 113.28 373.914C112.692 378.034 99.4067 388.588 107.282 392.054C112.563 394.377 113.925 388.494 117.815 387.08C125.828 384.166 113.836 405.777 113.836 400.246" stroke="#28D07E" stroke-opacity="0.5" stroke-linecap="round" stroke-linejoin="round"/>
<path d="M384.002 460.283C381.563 466.054 376.629 483.84 376.629 477.574C376.629 476.597 376.818 475.825 377.156 474.912C378.741 470.621 380.577 466.628 383.241 462.857C384.696 460.799 386.429 454.772 388.508 459.346C389.478 461.48 392.253 467.422 391.082 469.762C389.614 472.7 385.054 474.385 382.013 474.502C381.22 474.532 372.913 475.624 375.605 473.156C378.769 470.256 381.83 461.436 386.606 460.839C387.343 460.746 388.884 461.239 389.532 461.599C390.673 462.233 389.283 463.378 388.742 464.262C388.093 465.322 382.959 472.483 382.949 472.161C382.803 467.362 387.727 460.395 390.38 456.772C391.332 455.473 386.269 464.291 385.114 466.281C384.22 467.82 385.386 471.092 381.369 470.289" stroke="#28D07E" stroke-opacity="0.5" stroke-linecap="round" stroke-linejoin="round"/>
<path d="M220.744 36.8648C218.394 46.0569 216.301 54.8151 215.448 64.1915C215.363 65.1294 214.77 65.7358 215.36 66.4736C216.239 67.5717 218.562 60.5897 219.457 58.7203C222.29 52.7949 225.484 50.4566 225.484 43.1844C225.484 42.1351 225.484 36.0956 225.484 40.0831C225.484 43.4685 226.125 46.8144 225.893 50.2063C225.718 52.77 223.257 59.6889 225.074 57.8718C227.879 55.0672 225.632 41.0049 221.241 40.639C215.248 40.1396 212.359 53.129 211.674 57.1696C210.877 61.8708 214.192 63.839 217.847 60.1832C222.837 55.1934 223.919 44.9347 219.632 39.0884C213.742 31.0564 209.877 45.5488 209.392 49.0945C208.295 57.1151 212.775 59.6853 218.081 53.9806C220.033 51.8824 223.968 48.2543 223.143 44.9984C222.045 40.6676 215.644 44.8731 214.366 46.7539C212.553 49.4209 212.577 56.064 215.507 57.9596C218.242 59.7295 220.904 52.3957 220.598 50.5574C219.298 42.7611 204.602 55.1374 211.908 59.5688C218.267 63.4256 222.482 46.1709 214.658 48.3046C212.48 48.8987 207.305 54.7705 211.791 54.7705" stroke="#28D07E" stroke-opacity="0.5" stroke-linecap="round" stroke-linejoin="round"/>
<path d="M81.1844 186.957C78.8179 193.662 77.1142 197.942 71.1198 201.703C69.6147 202.647 67.6257 204.318 67.3163 206.209C66.6552 210.249 73.0278 214.701 76.6495 213.494C84.2807 210.95 72.733 203.397 71.5001 201.205C69.3535 197.389 77.1119 190.534 80.687 192.545C83.4699 194.111 84.7036 199.566 83.0569 202.229C80.6581 206.11 75.5021 206.263 71.4709 205.653C68.2604 205.166 61.8296 205.828 63.7176 210.597C66.08 216.565 77.2299 213.437 78.9023 208.374C80.5306 203.444 71.7155 201.586 73.6067 196.963C74.9057 193.788 79.0073 189.824 82.6473 189.824C87.0074 189.824 82.6532 197.969 82.0036 199.245C79.1353 204.883 74.7467 205.445 69.1888 206.969C58.7281 209.837 69.9973 210.241 70.6516 206.969" stroke="#28D07E" stroke-opacity="0.5" stroke-linecap="round" stroke-linejoin="round"/>
<path d="M68.545 259.107C67.427 263.316 64.1217 270.501 64.4489 275.081C64.6022 277.228 65.1885 270.84 65.4436 268.703C65.9297 264.632 66.4858 260.034 68.662 256.473C69.0482 255.841 77.9802 266.991 78.7852 268.82C80.9395 273.716 78.2423 272.784 74.8646 274.379C72.9874 275.266 60.1772 279.787 60.1772 278.592C60.1772 277.34 62.5923 274.795 63.1615 273.735C64.9434 270.42 66.8551 266.258 67.6087 262.559C69.2182 254.658 68.0183 270.917 68.0183 272.155C68.0183 272.907 68.3104 277.305 66.5554 277.305C64.359 277.305 68.0403 273.171 68.779 271.102C69.5624 268.909 72.6807 262.444 71.9096 260.131C70.8175 256.854 70.2711 266.89 70.1541 270.341C70.0748 272.681 68.9428 276.586 70.7685 272.799C71.3503 271.592 73.2283 266.645 73.1969 267.006C72.9322 270.051 71.7048 273.19 71.7048 276.252C71.7048 279.385 73.3578 269.298 76.2105 268.001C76.9198 267.678 75.9179 273.625 75.9179 274.496C75.9179 276.081 77.4393 268.405 77.4393 269.99C77.4393 270.432 76.8081 273.103 76.3275 272.272C74.358 268.871 72.8762 266.768 68.8375 265.543C66.9982 264.985 61.1516 265.368 63.0738 265.368C64.3372 265.368 66.3215 260.971 67.7257 262.12C69.5888 263.644 67.0319 268.51 66.4384 270.166C65.4666 272.877 64.8581 269.064 67.2576 269.347C69.7578 269.641 67.207 278.873 68.6035 276.778C69.2516 275.806 71.2148 271.01 71.1489 271.57C69.8741 282.406 70.1394 268.608 72.2314 271.746" stroke="#28D07E" stroke-opacity="0.5" stroke-linecap="round" stroke-linejoin="round"/>
<path d="M329.232 115.861C335.932 115.53 342.403 118.007 341.344 110.068C340.82 106.134 338.615 99.7021 339.764 95.8484C340.985 91.7569 348.476 82.5299 342.076 79.6396C336.709 77.2159 329.695 84.0698 328.705 88.7095C328.293 90.6392 328.381 96.6676 331.572 96.6676C333.984 96.6676 335.524 94.2999 337.629 96.4043C340.38 99.1553 340.871 101.665 338.916 105.123C334.224 113.424 315.661 104.152 325.662 94.1514C327.033 92.7806 332.455 86.4939 335.025 88.2999C338.56 90.7844 338.082 97.2529 336.254 100.471C334.43 103.68 327.738 107.041 325.106 102.929C323.806 100.897 324.428 99.5348 326.598 99.5348" stroke="#28D07E" stroke-opacity="0.5" stroke-linecap="round" stroke-linejoin="round"/>
<path d="M385.337 165.146C385.955 164.896 405.221 155.385 404.325 160.611C403.844 163.415 404.165 166.031 404.559 168.832C404.71 169.904 407.321 178.253 404.705 178.253C399.831 178.253 395.073 175.805 390.193 176.732C388.17 177.116 384.141 178.502 383.991 175.269C383.878 172.844 381.864 161.945 386.653 163.01C390.601 163.887 390.772 160.754 387.97 167.72C387.572 168.709 384.957 176.14 385.395 175.795C389.776 172.353 392.179 165.735 396.191 161.722C398.697 159.217 394.402 169.273 393.88 170.529C391.214 176.947 398.028 165.09 398.795 163.917C402.163 158.766 399.606 167.987 399.088 169.505C397.53 174.068 402.319 165.548 404.237 164.414C410.593 160.658 404.588 173.63 403.242 170.939" stroke="#28D07E" stroke-opacity="0.5" stroke-linecap="round" stroke-linejoin="round"/>
<path d="M333.445 264.373C333.747 272.114 333.612 276.337 340.174 271.453C342.036 270.068 341.245 273.346 340.788 274.145C340.026 275.48 335.555 282.189 340.057 279.616C341.197 278.965 344.27 277.665 344.27 280.172C344.27 280.568 342.892 285.412 344.241 284.063C346.451 281.853 346.491 273.521 346.611 270.283C346.637 269.576 346.946 268.754 346.318 269.113C343.09 270.957 341.557 280.615 339.881 284.385C338.435 287.64 334.264 283.805 331.865 282.279C327.318 279.385 330.177 281.44 330.285 281.225" stroke="#28D07E" stroke-opacity="0.5" stroke-linecap="round" stroke-linejoin="round"/>
<path d="M297.107 333.363C297.087 333.608 296.469 348.726 296.58 341.379C296.614 339.137 296.549 336.893 296.58 334.65C296.667 328.281 297.804 331.236 300.559 333.86C301.822 335.063 306.457 337.66 305.708 340.092C305.488 340.809 298.048 342.104 296.872 342.55C295.991 342.884 290.787 346.161 290.787 346.002C290.787 342.089 292.165 337.854 292.63 333.948C293.615 325.677 299.338 347.818 299.71 342.228C299.798 340.912 299.74 333.077 299.74 335.031C299.74 336.485 300.793 344.241 300.793 339.156C300.793 338.005 300.793 336.854 300.793 335.703C300.793 335.161 301.089 337.758 301.29 337.254C302.02 335.43 300.793 331.762 300.793 336.23C300.793 341.246 299.387 337.634 296.317 337.634C293.69 337.634 292.186 347.26 293.537 345.007C294.721 343.035 292.389 335.002 293.42 339.127C293.96 341.286 295.257 338.899 296.053 338.103" stroke="#28D07E" stroke-opacity="0.5" stroke-linecap="round" stroke-linejoin="round"/>
<path fill-rule="evenodd" clip-rule="evenodd" d="M290.611 267.861C288.169 266.97 285.842 265.668 283.72 263.859C267.696 250.208 274.567 229.612 284.264 218.889C293.962 208.167 353.284 212.444 325.299 262.118C325.181 262.189 325.061 262.26 324.939 262.332C321.81 272.288 324.449 280.827 327.615 291.072C328.906 295.251 330.285 299.714 331.396 304.672L301.716 302.546C293.558 291.468 290.465 280.302 290.611 267.861Z" fill="#F5B9AB"/>
<path d="M283.72 263.859L283.266 264.392L283.72 263.859ZM290.611 267.861L290.851 267.204C291.13 267.306 291.314 267.573 291.311 267.869L290.611 267.861ZM284.264 218.889L284.783 219.359L284.264 218.889ZM325.299 262.118L325.909 262.461C325.849 262.566 325.764 262.654 325.66 262.717L325.299 262.118ZM324.939 262.332L324.272 262.122C324.324 261.957 324.435 261.817 324.585 261.729L324.939 262.332ZM327.615 291.072L326.946 291.279L327.615 291.072ZM331.396 304.672L332.078 304.519C332.127 304.735 332.07 304.961 331.926 305.129C331.782 305.296 331.567 305.386 331.346 305.37L331.396 304.672ZM301.716 302.546L301.666 303.243C301.462 303.229 301.274 303.125 301.153 302.96L301.716 302.546ZM284.173 263.327C286.229 265.078 288.481 266.34 290.851 267.204L290.372 268.518C287.856 267.601 285.456 266.257 283.266 264.392L284.173 263.327ZM284.783 219.359C280.016 224.63 275.95 232.328 275.042 240.355C274.138 248.35 276.361 256.671 284.173 263.327L283.266 264.392C275.055 257.396 272.702 248.594 273.652 240.198C274.598 231.833 278.816 223.872 283.746 218.42L284.783 219.359ZM324.69 261.774C331.639 249.439 333.097 240.046 331.378 233.066C329.664 226.105 324.752 221.393 318.613 218.487C312.465 215.577 305.134 214.507 298.738 214.833C295.543 214.996 292.602 215.506 290.176 216.296C287.737 217.09 285.88 218.146 284.783 219.359L283.746 218.42C285.073 216.952 287.191 215.797 289.743 214.966C292.308 214.131 295.374 213.604 298.667 213.436C305.246 213.101 312.815 214.195 319.212 217.223C325.618 220.255 330.895 225.255 332.736 232.732C334.573 240.19 332.952 249.959 325.909 262.461L324.69 261.774ZM324.585 261.729C324.705 261.658 324.823 261.588 324.938 261.518L325.66 262.717C325.54 262.789 325.418 262.862 325.293 262.935L324.585 261.729ZM326.946 291.279C323.789 281.062 321.068 272.316 324.272 262.122L325.606 262.542C322.552 272.259 325.108 280.591 328.283 290.866L326.946 291.279ZM330.713 304.825C329.609 299.898 328.238 295.46 326.946 291.279L328.283 290.866C329.573 295.042 330.96 299.53 332.078 304.519L330.713 304.825ZM301.766 301.848L331.446 303.975L331.346 305.37L301.666 303.243L301.766 301.848ZM291.311 267.869C291.167 280.169 294.218 291.185 302.279 302.131L301.153 302.96C292.899 291.752 289.764 280.435 289.912 267.853L291.311 267.869Z" fill="black"/>
<path d="M330.624 232.12C335.268 238.582 330.266 254.541 326.575 258.532C357.158 241.563 337.796 203.276 328.36 210.258C326.822 196.103 310.58 191.108 299.507 203.08C271.747 180.662 270.286 218.862 280.085 224.671C289.883 230.48 301.771 224.948 307.94 227.944C314.11 230.939 317.917 249.085 319.915 239.014C321.914 228.943 324.818 224.044 330.624 232.12Z" fill="#28D07E" stroke="black" stroke-width="1.39887"/>
<path d="M358.072 513.989L315.023 510.865L325.383 394.989C325.383 394.989 275.437 276.63 318.312 276.63C378.893 276.63 399.151 369.966 398.396 394.989C397.64 420.012 358.072 513.989 358.072 513.989Z" fill="#EEEEEE" stroke="black" stroke-width="1.39887"/>
<path d="M314.697 515.877L315.299 510.645L358.651 512.387L357.695 520.795C356.15 534.389 342.534 543.155 329.519 538.935C319.72 535.757 313.52 526.111 314.697 515.877Z" fill="#F5B9AB" stroke="black" stroke-width="1.39887" stroke-linejoin="round"/>
<path d="M252.211 430.602C224.208 403.451 259.008 313.516 264.684 302.813C272.947 287.561 297.75 261.028 330.852 276.912C380.909 300.932 358.035 419.78 349.037 460.978L252.211 430.602Z" fill="#EEEEEE" stroke="black" stroke-width="1.39887"/>
<path d="M34.1542 524.857L29.6416 484.065C29.6416 484.065 134.411 450.111 220.758 437.371L339.316 447.612C357.125 489.696 348.342 567.038 216.256 531.481L34.1542 524.857Z" fill="#28D07E" stroke="black" stroke-width="1.39887"/>
<path fill-rule="evenodd" clip-rule="evenodd" d="M161.109 453.389L142.494 511.285L103.438 509.377L85.617 401.371C82.6647 383.479 96.4687 367.21 114.603 367.21L138.767 367.21L140.436 364.601L148.548 367.21C155.031 367.218 160.901 369.281 165.658 372.714L329.786 425.51C355.168 433.675 366.584 463.144 353.327 486.278L328.219 530.092C315.186 552.835 284.714 558.179 264.72 541.228L161.109 453.389Z" fill="#28D07E"/>
<path d="M161.109 453.389L161.561 452.855L160.763 452.179L160.443 453.175L161.109 453.389ZM142.494 511.285L142.46 511.983L142.996 512.009L143.16 511.499L142.494 511.285ZM103.438 509.377L102.747 509.49L102.839 510.048L103.403 510.075L103.438 509.377ZM85.617 401.371L86.3071 401.257L85.617 401.371ZM114.603 367.21V367.91V367.91V367.21ZM138.767 367.21V367.91H139.15L139.356 367.587L138.767 367.21ZM140.436 364.601L140.651 363.935L140.138 363.77L139.847 364.224L140.436 364.601ZM148.548 367.21L148.334 367.876L148.438 367.91L148.547 367.91L148.548 367.21ZM165.658 372.714L165.249 373.281L165.339 373.346L165.444 373.38L165.658 372.714ZM329.786 425.51L329.571 426.176L329.786 425.51ZM353.327 486.278L352.72 485.931V485.931L353.327 486.278ZM328.219 530.092L327.612 529.744L328.219 530.092ZM264.72 541.228L264.267 541.761L264.72 541.228ZM160.443 453.175L141.828 511.07L143.16 511.499L161.775 453.603L160.443 453.175ZM142.528 510.586L103.472 508.678L103.403 510.075L142.46 511.983L142.528 510.586ZM104.128 509.263L86.3071 401.257L84.9269 401.485L102.747 509.49L104.128 509.263ZM86.3071 401.257C83.4251 383.791 96.9004 367.91 114.603 367.91V366.511C96.0369 366.511 81.9043 383.166 84.9269 401.485L86.3071 401.257ZM114.603 367.91L138.767 367.91V366.511L114.603 366.511V367.91ZM139.356 367.587L141.026 364.978L139.847 364.224L138.178 366.833L139.356 367.587ZM140.222 365.267L148.334 367.876L148.762 366.544L140.651 363.935L140.222 365.267ZM148.547 367.91C154.879 367.917 160.606 369.931 165.249 373.281L166.068 372.147C161.195 368.631 155.183 366.519 148.549 366.511L148.547 367.91ZM165.444 373.38L329.571 426.176L330 424.844L165.873 372.048L165.444 373.38ZM329.571 426.176C354.53 434.204 365.757 463.182 352.72 485.931L353.934 486.626C367.412 463.106 355.806 433.145 330 424.844L329.571 426.176ZM352.72 485.931L327.612 529.744L328.826 530.44L353.934 486.626L352.72 485.931ZM327.612 529.744C314.796 552.108 284.833 557.363 265.172 540.694L264.267 541.761C284.595 558.995 315.575 553.562 328.826 530.44L327.612 529.744ZM265.172 540.694L161.561 452.855L160.657 453.923L264.267 541.761L265.172 540.694Z" fill="black"/>
<path d="M102.988 508.936L142.926 511.298L146.022 544.825C146.022 544.825 110.986 543.809 89.7321 537.161L104.018 530.14L102.988 508.936Z" fill="#EEEEEE" stroke="black" stroke-width="1.39887" stroke-linejoin="round"/>
<rect width="97.773" height="18.3324" rx="2.00878" transform="matrix(0.258819 0.965926 0.965926 -0.258819 89.5281 264.538)" fill="#EEEEEE" stroke="black" stroke-width="1.39887"/>
<rect width="97.773" height="18.3324" rx="2.00878" transform="matrix(-1 0 0 1 208.723 349.418)" fill="#28D07E" stroke="black" stroke-width="1.39887"/>
<path d="M29.9524 484.095L34.8922 524.877L5.0809 533.105C5.0809 533.105 -0.535751 497.966 2.18598 475.521L12.0313 488.456L29.9524 484.095Z" fill="#EEEEEE" stroke="black" stroke-width="1.39887" stroke-linejoin="round"/>
<path d="M177.994 378.615L200.366 341.338L268.96 378.689C265.815 335.582 295.402 273.546 326.471 277.325C380.976 283.953 340.821 418.301 305.116 441.983C269.41 465.664 177.994 378.615 177.994 378.615Z" fill="#EEEEEE"/>
<path d="M348.174 359.777C339.738 395.124 321.933 430.829 305.116 441.983C269.41 465.664 177.994 378.615 177.994 378.615L200.366 341.338L268.96 378.689L292.274 320.2" stroke="black" stroke-width="1.39887"/>
<path d="M196.293 338.51L200.578 341.573L178.038 378.645L171.148 373.734C160.007 365.792 158.94 349.633 168.941 340.296C176.471 333.266 187.913 332.519 196.293 338.51Z" fill="#F5B9AB" stroke="black" stroke-width="1.39887" stroke-linejoin="round"/>
</svg>
