<svg width="84" height="54" viewBox="0 0 84 54" fill="none" xmlns="http://www.w3.org/2000/svg">
<path d="M0.448 53.216V48.032C2.02667 48.032 3.30667 47.9253 4.288 47.712C5.26933 47.4987 6.016 47.1147 6.528 46.56C7.08267 46.0053 7.46667 45.216 7.68 44.192C7.89333 43.1253 8 41.7813 8 40.16V0.159996H15.168V40.288C15.168 43.2747 14.848 45.728 14.208 47.648C13.568 49.5253 12.4373 50.9333 10.816 51.872C9.19467 52.768 6.89067 53.216 3.904 53.216H0.448ZM23.282 52V0.159996H33.714C37.17 0.159996 40.0287 0.62933 42.29 1.568C44.5513 2.464 46.2153 3.936 47.282 5.984C48.3913 7.98933 48.946 10.6347 48.946 13.92C48.946 15.9253 48.7327 17.76 48.306 19.424C47.8793 21.0453 47.1967 22.432 46.258 23.584C45.3193 24.6933 44.082 25.504 42.546 26.016L49.906 52H42.93L36.146 27.68H30.514V52H23.282ZM30.514 22.496H33.266C35.314 22.496 36.978 22.24 38.258 21.728C39.538 21.216 40.4767 20.3413 41.074 19.104C41.6713 17.8667 41.97 16.1387 41.97 13.92C41.97 10.8907 41.4153 8.71467 40.306 7.392C39.1967 6.02666 36.9993 5.344 33.714 5.344H30.514V22.496ZM56.4695 52V0.159996H67.7335C71.5735 0.159996 74.6028 0.757329 76.8215 1.952C79.0828 3.104 80.6828 4.85333 81.6215 7.2C82.6028 9.54666 83.0935 12.4693 83.0935 15.968V35.04C83.0935 38.7093 82.6028 41.8027 81.6215 44.32C80.6828 46.8373 79.1255 48.7573 76.9495 50.08C74.8162 51.36 71.9362 52 68.3095 52H56.4695ZM63.7015 46.816H67.7975C70.4428 46.816 72.3202 46.304 73.4295 45.28C74.5388 44.256 75.2002 42.7627 75.4135 40.8C75.6695 38.8373 75.7975 36.4693 75.7975 33.696V16.864C75.7975 14.176 75.6268 12 75.2855 10.336C74.9442 8.672 74.1975 7.456 73.0455 6.688C71.8935 5.92 70.0802 5.536 67.6055 5.536H63.7015V46.816Z" fill="white"/>
</svg>
